%FSLAX34Y34*%
%MOMM*%
%LNSILK_TOP*%
G71*
G01*
%ADD10C, 0.10*%
%ADD11C, 0.11*%
%ADD12C, 0.15*%
%ADD13C, 0.13*%
%ADD14C, 0.20*%
%ADD15C, 1.20*%
%LPD*%
G54D10*
X50237Y-429775D02*
X50237Y-349775D01*
X231737Y-349775D01*
X231737Y-378975D01*
G54D10*
X231737Y-398981D02*
X229237Y-398981D01*
X226737Y-396481D01*
X226737Y-381481D01*
X229237Y-378981D01*
X231737Y-378981D01*
G54D10*
X231737Y-429775D02*
X50237Y-429775D01*
G54D10*
X232137Y-399475D02*
X232137Y-429575D01*
G54D11*
X130807Y-395190D02*
X136140Y-395190D01*
G54D11*
X133474Y-395190D02*
X133474Y-386301D01*
G54D11*
X130807Y-386301D02*
X136140Y-386301D01*
G54D11*
X143917Y-393524D02*
X143251Y-394635D01*
X141917Y-395190D01*
X140584Y-395190D01*
X139251Y-394635D01*
X138584Y-393524D01*
X138584Y-387968D01*
X139251Y-386857D01*
X140584Y-386301D01*
X141917Y-386301D01*
X143251Y-386857D01*
X143917Y-387968D01*
G54D11*
X151694Y-395190D02*
X146361Y-395190D01*
X146361Y-394635D01*
X147028Y-393524D01*
X151028Y-390190D01*
X151694Y-389079D01*
X151694Y-387968D01*
X151028Y-386857D01*
X149694Y-386301D01*
X148361Y-386301D01*
X147028Y-386857D01*
X146361Y-387968D01*
G54D12*
X26978Y-345794D02*
X20677Y-352094D01*
X20678Y-364894D01*
X26978Y-371194D01*
X39778Y-371194D01*
X46078Y-364894D01*
X46078Y-352094D01*
X39777Y-345794D01*
X26978Y-345794D01*
G54D12*
X26978Y-371194D02*
X20678Y-377494D01*
X20678Y-390294D01*
X26978Y-396594D01*
X39778Y-396594D01*
X46078Y-390294D01*
X46078Y-377494D01*
X39778Y-371194D01*
X26978Y-371194D01*
G54D12*
X26978Y-396594D02*
X20678Y-402894D01*
X20678Y-415694D01*
X26977Y-421994D01*
X39777Y-421994D01*
X46078Y-415694D01*
X46078Y-402894D01*
X39778Y-396594D01*
X26978Y-396594D01*
G54D12*
X26977Y-421994D02*
X20678Y-428294D01*
X20678Y-441094D01*
X26977Y-447394D01*
X39777Y-447394D01*
X46078Y-441094D01*
X46078Y-428294D01*
X39777Y-421994D01*
X26977Y-421994D01*
G54D12*
X26978Y-320394D02*
X20678Y-326694D01*
X20678Y-339494D01*
X26978Y-345794D01*
X39777Y-345794D01*
X46078Y-339494D01*
X46078Y-326694D01*
X39778Y-320394D01*
X26978Y-320394D01*
G54D10*
X292119Y-364138D02*
X292119Y-399138D01*
X357119Y-399138D01*
X357119Y-364138D01*
X292119Y-364138D01*
G54D11*
X314430Y-387664D02*
X319763Y-387664D01*
G54D11*
X317096Y-387664D02*
X317096Y-378775D01*
G54D11*
X314430Y-378775D02*
X319763Y-378775D01*
G54D11*
X327540Y-385997D02*
X326873Y-387108D01*
X325540Y-387664D01*
X324207Y-387664D01*
X322873Y-387108D01*
X322207Y-385997D01*
X322207Y-380442D01*
X322873Y-379331D01*
X324207Y-378775D01*
X325540Y-378775D01*
X326873Y-379331D01*
X327540Y-380442D01*
G54D11*
X329984Y-380442D02*
X330650Y-379331D01*
X331984Y-378775D01*
X333317Y-378775D01*
X334650Y-379331D01*
X335317Y-380442D01*
X335317Y-381553D01*
X334650Y-382664D01*
X333317Y-383220D01*
X334650Y-383775D01*
X335317Y-384886D01*
X335317Y-385997D01*
X334650Y-387108D01*
X333317Y-387664D01*
X331984Y-387664D01*
X330650Y-387108D01*
X329984Y-385997D01*
G54D10*
X99939Y-475819D02*
X99939Y-483757D01*
X124546Y-483757D01*
G54D10*
X99939Y-475819D02*
X99939Y-467882D01*
X108670Y-467882D01*
G54D10*
X132808Y-475819D02*
X132808Y-483757D01*
X124077Y-483757D01*
G54D10*
X132808Y-475819D02*
X132808Y-467882D01*
X108202Y-467882D01*
G54D12*
X248436Y-403018D02*
X278436Y-403018D01*
X278436Y-459368D01*
X248436Y-459368D01*
X248436Y-403018D01*
G54D11*
X261616Y-470548D02*
X260949Y-471659D01*
X259616Y-472214D01*
X258282Y-472214D01*
X256949Y-471659D01*
X256282Y-470548D01*
X256282Y-464992D01*
X256949Y-463881D01*
X258282Y-463325D01*
X259616Y-463325D01*
X260949Y-463881D01*
X261616Y-464992D01*
G54D11*
X269393Y-463325D02*
X264059Y-463325D01*
X264059Y-467214D01*
X264726Y-467214D01*
X266059Y-466659D01*
X267393Y-466659D01*
X268726Y-467214D01*
X269393Y-468325D01*
X269393Y-470548D01*
X268726Y-471659D01*
X267393Y-472214D01*
X266059Y-472214D01*
X264726Y-471659D01*
X264059Y-470548D01*
G54D13*
X112159Y-274367D02*
X116159Y-276367D01*
G54D13*
X115359Y-267701D02*
X115359Y-274367D01*
X114559Y-275701D01*
X112959Y-276367D01*
X111359Y-276367D01*
X109759Y-275701D01*
X108959Y-274367D01*
X108959Y-267701D01*
X109759Y-266367D01*
X111359Y-265701D01*
X112959Y-265701D01*
X114559Y-266367D01*
X115359Y-267701D01*
G54D13*
X119092Y-269701D02*
X123092Y-265701D01*
X123092Y-276367D01*
G54D10*
X279329Y-352974D02*
X279329Y-345036D01*
X270598Y-345036D01*
G54D10*
X279329Y-352974D02*
X279329Y-360912D01*
X270598Y-360911D01*
G54D10*
X246460Y-352974D02*
X246460Y-345036D01*
X255191Y-345036D01*
G54D10*
X246460Y-352974D02*
X246460Y-360912D01*
X255191Y-360912D01*
G54D10*
X279329Y-330749D02*
X279329Y-322811D01*
X254722Y-322812D01*
G54D10*
X279329Y-330749D02*
X279329Y-338686D01*
X270598Y-338686D01*
G54D10*
X246460Y-330749D02*
X246460Y-322812D01*
X255191Y-322812D01*
G54D10*
X246460Y-330749D02*
X246460Y-338686D01*
X271066Y-338686D01*
G54D10*
X279329Y-308524D02*
X279329Y-300586D01*
X270598Y-300586D01*
G54D10*
X279329Y-308524D02*
X279329Y-316462D01*
X270598Y-316461D01*
G54D10*
X246460Y-308524D02*
X246460Y-300586D01*
X255191Y-300586D01*
G54D10*
X246460Y-308524D02*
X246460Y-316462D01*
X255191Y-316462D01*
G54D10*
X209341Y-321029D02*
X217279Y-321029D01*
X217278Y-296423D01*
G54D10*
X209341Y-321029D02*
X201404Y-321029D01*
X201404Y-312298D01*
G54D10*
X209341Y-288160D02*
X217278Y-288160D01*
X217278Y-296891D01*
G54D10*
X209341Y-288160D02*
X201404Y-288160D01*
X201404Y-312766D01*
G54D10*
X187116Y-321029D02*
X195054Y-321029D01*
X195054Y-296423D01*
G54D10*
X187116Y-321029D02*
X179178Y-321029D01*
X179178Y-312298D01*
G54D10*
X187116Y-288160D02*
X195054Y-288160D01*
X195054Y-296891D01*
G54D10*
X187116Y-288160D02*
X179178Y-288160D01*
X179178Y-312766D01*
G54D11*
X141374Y-478822D02*
X140708Y-479934D01*
X139374Y-480489D01*
X138041Y-480489D01*
X136708Y-479934D01*
X136041Y-478822D01*
X136041Y-473267D01*
X136708Y-472156D01*
X138041Y-471600D01*
X139374Y-471600D01*
X140708Y-472156D01*
X141374Y-473267D01*
G54D11*
X143818Y-471600D02*
X149151Y-471600D01*
X148485Y-472711D01*
X147151Y-474378D01*
X145818Y-476600D01*
X145151Y-478267D01*
X145151Y-480489D01*
G54D11*
X255970Y-369338D02*
X257970Y-370449D01*
X258637Y-371560D01*
X258637Y-373782D01*
G54D11*
X253303Y-373782D02*
X253303Y-364894D01*
X256637Y-364894D01*
X257970Y-365449D01*
X258637Y-366560D01*
X258637Y-367671D01*
X257970Y-368782D01*
X256637Y-369338D01*
X253303Y-369338D01*
G54D11*
X261080Y-368227D02*
X264414Y-364894D01*
X264414Y-373782D01*
G54D11*
X266857Y-364894D02*
X272191Y-364894D01*
X271524Y-366005D01*
X270191Y-367671D01*
X268857Y-369894D01*
X268191Y-371560D01*
X268191Y-373782D01*
G54D11*
X289132Y-332766D02*
X288465Y-333877D01*
X287132Y-334433D01*
X285798Y-334433D01*
X284465Y-333877D01*
X283798Y-332766D01*
X283798Y-327211D01*
X284465Y-326100D01*
X285798Y-325544D01*
X287132Y-325544D01*
X288465Y-326100D01*
X289132Y-327211D01*
G54D11*
X291575Y-327211D02*
X292242Y-326100D01*
X293575Y-325544D01*
X294909Y-325544D01*
X296242Y-326100D01*
X296909Y-327211D01*
X296909Y-328322D01*
X296242Y-329433D01*
X294909Y-329989D01*
X296242Y-330544D01*
X296909Y-331655D01*
X296909Y-332766D01*
X296242Y-333877D01*
X294909Y-334433D01*
X293575Y-334433D01*
X292242Y-333877D01*
X291575Y-332766D01*
G54D11*
X412282Y-434468D02*
X411615Y-435579D01*
X410282Y-436134D01*
X408948Y-436134D01*
X407615Y-435579D01*
X406948Y-434468D01*
X406948Y-428912D01*
X407615Y-427801D01*
X408948Y-427245D01*
X410282Y-427245D01*
X411615Y-427801D01*
X412282Y-428912D01*
G54D11*
X420059Y-428912D02*
X419392Y-427801D01*
X418059Y-427245D01*
X416725Y-427245D01*
X415392Y-427801D01*
X414725Y-428912D01*
X414725Y-431690D01*
X414725Y-432245D01*
X416725Y-431134D01*
X418059Y-431134D01*
X419392Y-431690D01*
X420059Y-432801D01*
X420059Y-434468D01*
X419392Y-435579D01*
X418059Y-436134D01*
X416725Y-436134D01*
X415392Y-435579D01*
X414725Y-434468D01*
X414725Y-431690D01*
G54D12*
X372261Y-403018D02*
X402261Y-403018D01*
X402261Y-459368D01*
X372261Y-459368D01*
X372261Y-403018D01*
G54D11*
X256667Y-291624D02*
X258667Y-292735D01*
X259333Y-293846D01*
X259333Y-296068D01*
G54D11*
X254000Y-296068D02*
X254000Y-287180D01*
X257333Y-287180D01*
X258667Y-287735D01*
X259333Y-288846D01*
X259333Y-289957D01*
X258667Y-291068D01*
X257333Y-291624D01*
X254000Y-291624D01*
G54D11*
X261777Y-290513D02*
X265110Y-287180D01*
X265110Y-296068D01*
G54D11*
X271554Y-296068D02*
X271554Y-287180D01*
X267554Y-292735D01*
X267554Y-293846D01*
X272887Y-293846D01*
G54D10*
X90488Y-283369D02*
X90488Y-279797D01*
X141288Y-279797D01*
X141288Y-283369D01*
G54D10*
X141288Y-308769D02*
X141288Y-312341D01*
X90488Y-312341D01*
X90488Y-308769D01*
G54D12*
X288131Y-457994D02*
X288131Y-449262D01*
G54D12*
X283766Y-453628D02*
X292497Y-453628D01*
G54D12*
X361156Y-457994D02*
X361156Y-449262D01*
G54D12*
X356791Y-453628D02*
X365522Y-453628D01*
G54D12*
X276619Y-574820D02*
X276619Y-587520D01*
X254394Y-587520D01*
X254394Y-584346D01*
G54D12*
X254394Y-571646D02*
X254394Y-563708D01*
G54D12*
X276619Y-560683D02*
X276619Y-547983D01*
X254394Y-547983D01*
X254394Y-551158D01*
G54D12*
X276618Y-517026D02*
X276618Y-504326D01*
X254393Y-504326D01*
X254393Y-507501D01*
G54D12*
X254393Y-520201D02*
X254393Y-528138D01*
G54D12*
X276618Y-531164D02*
X276618Y-543864D01*
X254393Y-543864D01*
X254393Y-540688D01*
G54D12*
X236137Y-560682D02*
X236137Y-547982D01*
X213912Y-547982D01*
X213912Y-551157D01*
G54D12*
X213912Y-563857D02*
X213912Y-571795D01*
G54D12*
X236137Y-574820D02*
X236137Y-587520D01*
X213912Y-587520D01*
X213912Y-584345D01*
G54D10*
X214637Y-541002D02*
X222575Y-541002D01*
X222575Y-532270D01*
G54D10*
X214637Y-541002D02*
X206700Y-541002D01*
X206700Y-532270D01*
G54D10*
X214637Y-508133D02*
X222575Y-508133D01*
X222575Y-516864D01*
G54D10*
X214637Y-508133D02*
X206700Y-508133D01*
X206700Y-516864D01*
G54D10*
X236068Y-541002D02*
X244006Y-541002D01*
X244006Y-532270D01*
G54D10*
X236068Y-541002D02*
X228131Y-541002D01*
X228131Y-532270D01*
G54D10*
X236068Y-508133D02*
X244006Y-508133D01*
X244006Y-516864D01*
G54D10*
X236068Y-508133D02*
X228131Y-508133D01*
X228131Y-516864D01*
G54D10*
X193206Y-541002D02*
X201144Y-541002D01*
X201144Y-532270D01*
G54D10*
X193206Y-541002D02*
X185268Y-541002D01*
X185268Y-532270D01*
G54D10*
X193206Y-508133D02*
X201144Y-508133D01*
X201144Y-516864D01*
G54D10*
X193206Y-508133D02*
X185268Y-508133D01*
X185268Y-516864D01*
G54D12*
X380990Y-488669D02*
X374690Y-494970D01*
X374690Y-507769D01*
X380990Y-514070D01*
X393790Y-514069D01*
X400090Y-507769D01*
X400090Y-494969D01*
X393790Y-488669D01*
X380990Y-488669D01*
G54D12*
X380990Y-514070D02*
X374690Y-520369D01*
X374690Y-533169D01*
X380990Y-539469D01*
X393790Y-539469D01*
X400090Y-533169D01*
X400090Y-520369D01*
X393790Y-514069D01*
X380990Y-514070D01*
G54D12*
X380990Y-539469D02*
X374690Y-545769D01*
X374690Y-558569D01*
X380990Y-564869D01*
X393790Y-564869D01*
X400090Y-558569D01*
X400090Y-545769D01*
X393790Y-539469D01*
X380990Y-539469D01*
G54D12*
X380990Y-564869D02*
X374690Y-571169D01*
X374690Y-583969D01*
X380990Y-590269D01*
X393790Y-590269D01*
X400090Y-583969D01*
X400090Y-571169D01*
X393790Y-564869D01*
X380990Y-564869D01*
G54D12*
X78922Y-252753D02*
X66222Y-252753D01*
X66222Y-230528D01*
X69397Y-230528D01*
G54D12*
X82097Y-230528D02*
X90034Y-230528D01*
G54D12*
X93060Y-252753D02*
X105759Y-252753D01*
X105760Y-230528D01*
X102585Y-230528D01*
G54D12*
X27329Y-230566D02*
X14629Y-230566D01*
X14629Y-252790D01*
X17804Y-252790D01*
G54D12*
X30504Y-252790D02*
X38442Y-252790D01*
G54D12*
X41466Y-230566D02*
X54166Y-230566D01*
X54166Y-252791D01*
X50992Y-252790D01*
G54D10*
X57931Y-136916D02*
X61106Y-136916D01*
X62693Y-135329D01*
X62693Y-132154D01*
X80950Y-132154D01*
X80950Y-170254D01*
X34912Y-170254D01*
X34912Y-132154D01*
X53168Y-132154D01*
X53168Y-135329D01*
X54756Y-136916D01*
X57931Y-136916D01*
G54D12*
X138568Y-146953D02*
X138568Y-134253D01*
X116343Y-134253D01*
X116343Y-137428D01*
G54D12*
X116343Y-150128D02*
X116343Y-158065D01*
G54D12*
X138568Y-161090D02*
X138568Y-173790D01*
X116343Y-173790D01*
X116343Y-170615D01*
G54D10*
X115019Y-121384D02*
X122957Y-121385D01*
X122957Y-112653D01*
G54D10*
X115019Y-121384D02*
X107082Y-121385D01*
X107082Y-112653D01*
G54D10*
X115020Y-88516D02*
X122957Y-88516D01*
X122957Y-97247D01*
G54D10*
X115020Y-88516D02*
X107082Y-88516D01*
X107082Y-97247D01*
G54D10*
X25326Y-214253D02*
X33263Y-214253D01*
X33263Y-205522D01*
G54D10*
X25326Y-214253D02*
X17388Y-214253D01*
X17388Y-205522D01*
G54D10*
X25326Y-181385D02*
X33263Y-181384D01*
X33263Y-190116D01*
G54D10*
X25326Y-181385D02*
X17388Y-181385D01*
X17388Y-190116D01*
G54D10*
X75332Y-214253D02*
X83269Y-214253D01*
X83269Y-205522D01*
G54D10*
X75332Y-214253D02*
X67394Y-214253D01*
X67394Y-205522D01*
G54D10*
X75332Y-181385D02*
X83269Y-181384D01*
X83269Y-190116D01*
G54D10*
X75332Y-181385D02*
X67394Y-181385D01*
X67394Y-190116D01*
G54D10*
X98351Y-214253D02*
X106288Y-214253D01*
X106288Y-205522D01*
G54D10*
X98351Y-214253D02*
X90413Y-214253D01*
X90413Y-205522D01*
G54D10*
X98351Y-181385D02*
X106288Y-181384D01*
X106288Y-190116D01*
G54D10*
X98351Y-181385D02*
X90413Y-181385D01*
X90413Y-190116D01*
G54D11*
X147854Y-150322D02*
X156743Y-150322D01*
G54D11*
X156743Y-147656D02*
X156743Y-152989D01*
G54D11*
X153410Y-155432D02*
X156743Y-158766D01*
X147854Y-158766D01*
G54D11*
X55779Y-229697D02*
X64668Y-229697D01*
G54D11*
X64668Y-227030D02*
X64668Y-232364D01*
G54D11*
X55779Y-240141D02*
X55779Y-234808D01*
X56335Y-234808D01*
X57446Y-235474D01*
X60779Y-239474D01*
X61890Y-240141D01*
X63001Y-240141D01*
X64113Y-239474D01*
X64668Y-238141D01*
X64668Y-236808D01*
X64113Y-235474D01*
X63001Y-234808D01*
G54D11*
X114992Y-194772D02*
X113881Y-196772D01*
X112770Y-197439D01*
X110548Y-197439D01*
G54D11*
X110548Y-192106D02*
X119437Y-192106D01*
X119437Y-195439D01*
X118881Y-196772D01*
X117770Y-197439D01*
X116659Y-197439D01*
X115548Y-196772D01*
X114992Y-195439D01*
X114992Y-192106D01*
G54D11*
X112215Y-199882D02*
X111104Y-200549D01*
X110548Y-201882D01*
X110548Y-203216D01*
X111104Y-204549D01*
X112215Y-205216D01*
X114992Y-205216D01*
X115548Y-205216D01*
X114437Y-203216D01*
X114437Y-201882D01*
X114992Y-200549D01*
X116104Y-199882D01*
X117770Y-199882D01*
X118881Y-200549D01*
X119437Y-201882D01*
X119437Y-203216D01*
X118881Y-204549D01*
X117770Y-205216D01*
X114992Y-205216D01*
G54D11*
X58636Y-194772D02*
X57525Y-196772D01*
X56414Y-197439D01*
X54192Y-197439D01*
G54D11*
X54192Y-192106D02*
X63081Y-192106D01*
X63081Y-195439D01*
X62525Y-196772D01*
X61414Y-197439D01*
X60303Y-197439D01*
X59192Y-196772D01*
X58636Y-195439D01*
X58636Y-192106D01*
G54D11*
X58636Y-203216D02*
X58636Y-201882D01*
X59192Y-200549D01*
X60303Y-199882D01*
X61414Y-199882D01*
X62525Y-200549D01*
X63081Y-201882D01*
X63081Y-203216D01*
X62525Y-204549D01*
X61414Y-205216D01*
X60303Y-205216D01*
X59192Y-204549D01*
X58636Y-203216D01*
X58081Y-204549D01*
X56970Y-205216D01*
X55858Y-205216D01*
X54747Y-204549D01*
X54192Y-203216D01*
X54192Y-201882D01*
X54747Y-200549D01*
X55858Y-199882D01*
X56970Y-199882D01*
X58081Y-200549D01*
X58636Y-201882D01*
G54D11*
X41174Y-194772D02*
X40063Y-196772D01*
X38951Y-197439D01*
X36729Y-197439D01*
G54D11*
X36729Y-192106D02*
X45618Y-192106D01*
X45618Y-195439D01*
X45063Y-196772D01*
X43951Y-197439D01*
X42840Y-197439D01*
X41729Y-196772D01*
X41174Y-195439D01*
X41174Y-192106D01*
G54D11*
X45618Y-199882D02*
X45618Y-205216D01*
X44507Y-204549D01*
X42840Y-203216D01*
X40618Y-201882D01*
X38951Y-201216D01*
X36729Y-201216D01*
G54D11*
X75305Y-101110D02*
X74194Y-103110D01*
X73083Y-103777D01*
X70861Y-103777D01*
G54D11*
X70861Y-98443D02*
X79749Y-98443D01*
X79749Y-101777D01*
X79194Y-103110D01*
X78083Y-103777D01*
X76972Y-103777D01*
X75861Y-103110D01*
X75305Y-101777D01*
X75305Y-98443D01*
G54D11*
X76416Y-106220D02*
X79749Y-109554D01*
X70861Y-109554D01*
G54D11*
X47503Y-155842D02*
X52836Y-155842D01*
G54D11*
X50170Y-155842D02*
X50170Y-146953D01*
G54D11*
X47503Y-146953D02*
X52836Y-146953D01*
G54D11*
X60613Y-154175D02*
X59947Y-155286D01*
X58613Y-155842D01*
X57280Y-155842D01*
X55947Y-155286D01*
X55280Y-154175D01*
X55280Y-148620D01*
X55947Y-147509D01*
X57280Y-146953D01*
X58613Y-146953D01*
X59947Y-147509D01*
X60613Y-148620D01*
G54D11*
X63057Y-150286D02*
X66390Y-146953D01*
X66390Y-155842D01*
G54D12*
X317490Y-488669D02*
X311190Y-494970D01*
X311190Y-507769D01*
X317490Y-514070D01*
X330290Y-514069D01*
X336590Y-507769D01*
X336590Y-494969D01*
X330290Y-488669D01*
X317490Y-488669D01*
G54D12*
X317490Y-514070D02*
X311190Y-520369D01*
X311190Y-533169D01*
X317490Y-539469D01*
X330290Y-539469D01*
X336590Y-533169D01*
X336590Y-520369D01*
X330290Y-514069D01*
X317490Y-514070D01*
G54D12*
X317490Y-539469D02*
X311190Y-545769D01*
X311190Y-558569D01*
X317490Y-564869D01*
X330290Y-564869D01*
X336590Y-558569D01*
X336590Y-545769D01*
X330290Y-539469D01*
X317490Y-539469D01*
G54D12*
X317490Y-564869D02*
X311190Y-571169D01*
X311190Y-583969D01*
X317490Y-590269D01*
X330290Y-590269D01*
X336590Y-583969D01*
X336590Y-571169D01*
X330290Y-564869D01*
X317490Y-564869D01*
G54D10*
X193206Y-584658D02*
X201144Y-584658D01*
X201144Y-575926D01*
G54D10*
X193206Y-584658D02*
X185268Y-584658D01*
X185268Y-575926D01*
G54D10*
X193206Y-551789D02*
X201144Y-551789D01*
X201144Y-560520D01*
G54D10*
X193206Y-551789D02*
X185268Y-551789D01*
X185268Y-560520D01*
G54D12*
X156762Y-574820D02*
X156762Y-587520D01*
X134538Y-587520D01*
X134538Y-584346D01*
G54D12*
X134538Y-571646D02*
X134538Y-563708D01*
G54D12*
X156762Y-560683D02*
X156762Y-547983D01*
X134538Y-547983D01*
X134538Y-551158D01*
G54D12*
X156762Y-517026D02*
X156762Y-504326D01*
X134537Y-504326D01*
X134537Y-507501D01*
G54D12*
X134537Y-520201D02*
X134537Y-528138D01*
G54D12*
X156762Y-531164D02*
X156762Y-543864D01*
X134537Y-543864D01*
X134537Y-540688D01*
G54D12*
X116281Y-560682D02*
X116281Y-547982D01*
X94056Y-547982D01*
X94056Y-551157D01*
G54D12*
X94056Y-563857D02*
X94056Y-571795D01*
G54D12*
X116281Y-574820D02*
X116281Y-587520D01*
X94056Y-587520D01*
X94056Y-584345D01*
G54D10*
X94781Y-541002D02*
X102718Y-541002D01*
X102718Y-532270D01*
G54D10*
X94781Y-541002D02*
X86844Y-541002D01*
X86844Y-532270D01*
G54D10*
X94781Y-508133D02*
X102718Y-508133D01*
X102718Y-516864D01*
G54D10*
X94781Y-508133D02*
X86844Y-508133D01*
X86844Y-516864D01*
G54D10*
X116212Y-541002D02*
X124150Y-541002D01*
X124150Y-532270D01*
G54D10*
X116212Y-541002D02*
X108275Y-541002D01*
X108275Y-532270D01*
G54D10*
X116212Y-508133D02*
X124150Y-508133D01*
X124150Y-516864D01*
G54D10*
X116212Y-508133D02*
X108275Y-508133D01*
X108275Y-516864D01*
G54D10*
X73350Y-541002D02*
X81287Y-541002D01*
X81287Y-532270D01*
G54D10*
X73350Y-541002D02*
X65412Y-541002D01*
X65412Y-532270D01*
G54D10*
X73350Y-508133D02*
X81287Y-508133D01*
X81287Y-516864D01*
G54D10*
X73350Y-508133D02*
X65412Y-508133D01*
X65412Y-516864D01*
G54D10*
X73350Y-584658D02*
X81287Y-584658D01*
X81287Y-575926D01*
G54D10*
X73350Y-584658D02*
X65412Y-584658D01*
X65412Y-575926D01*
G54D10*
X73350Y-551789D02*
X81287Y-551789D01*
X81287Y-560520D01*
G54D10*
X73350Y-551789D02*
X65412Y-551789D01*
X65412Y-560520D01*
G54D12*
X26978Y-488669D02*
X20677Y-494970D01*
X20678Y-507769D01*
X26978Y-514070D01*
X39778Y-514069D01*
X46078Y-507769D01*
X46078Y-494969D01*
X39777Y-488669D01*
X26978Y-488669D01*
G54D12*
X26978Y-514070D02*
X20678Y-520369D01*
X20678Y-533169D01*
X26978Y-539469D01*
X39778Y-539469D01*
X46078Y-533169D01*
X46078Y-520369D01*
X39778Y-514069D01*
X26978Y-514070D01*
G54D12*
X26978Y-539469D02*
X20678Y-545769D01*
X20678Y-558569D01*
X26977Y-564869D01*
X39777Y-564869D01*
X46078Y-558569D01*
X46078Y-545769D01*
X39778Y-539469D01*
X26978Y-539469D01*
G54D12*
X26977Y-564869D02*
X20678Y-571169D01*
X20678Y-583969D01*
X26977Y-590269D01*
X39777Y-590269D01*
X46078Y-583969D01*
X46078Y-571169D01*
X39777Y-564869D01*
X26977Y-564869D01*
G54D10*
X189635Y-464893D02*
X189635Y-456955D01*
X180904Y-456955D01*
G54D10*
X189635Y-464893D02*
X189635Y-472830D01*
X180904Y-472830D01*
G54D10*
X156766Y-464893D02*
X156766Y-456955D01*
X165498Y-456955D01*
G54D10*
X156766Y-464893D02*
X156766Y-472830D01*
X165498Y-472830D01*
G54D10*
X189635Y-485530D02*
X189635Y-477593D01*
X180904Y-477593D01*
G54D10*
X189635Y-485530D02*
X189635Y-493468D01*
X180904Y-493468D01*
G54D10*
X156766Y-485530D02*
X156766Y-477593D01*
X165498Y-477593D01*
G54D10*
X156766Y-485530D02*
X156766Y-493468D01*
X165498Y-493468D01*
G54D12*
X372261Y-324437D02*
X402261Y-324437D01*
X402261Y-380787D01*
X372261Y-380787D01*
X372261Y-324437D01*
G54D10*
X347592Y-308524D02*
X347591Y-300586D01*
X338860Y-300586D01*
G54D10*
X347592Y-308524D02*
X347591Y-316462D01*
X338860Y-316461D01*
G54D10*
X314723Y-308524D02*
X314722Y-300586D01*
X323454Y-300586D01*
G54D10*
X314723Y-308524D02*
X314722Y-316462D01*
X323454Y-316462D01*
G54D10*
X392042Y-308524D02*
X392041Y-300586D01*
X383310Y-300586D01*
G54D10*
X392042Y-308524D02*
X392041Y-316462D01*
X383310Y-316461D01*
G54D10*
X359173Y-308524D02*
X359172Y-300586D01*
X367904Y-300586D01*
G54D10*
X359173Y-308524D02*
X359172Y-316462D01*
X367904Y-316462D01*
G54D10*
X419894Y-273844D02*
X253206Y-273844D01*
X253206Y-79375D01*
X419894Y-79375D01*
X419894Y-273844D01*
G54D10*
X231306Y-260014D02*
X239244Y-260014D01*
X239244Y-251283D01*
G54D10*
X231306Y-260014D02*
X223368Y-260014D01*
X223368Y-251283D01*
G54D10*
X231306Y-227145D02*
X239244Y-227145D01*
X239244Y-235876D01*
G54D10*
X231306Y-227145D02*
X223368Y-227145D01*
X223368Y-235876D01*
G54D10*
X209081Y-260014D02*
X217018Y-260014D01*
X217018Y-251283D01*
G54D10*
X209081Y-260014D02*
X201144Y-260014D01*
X201144Y-251283D01*
G54D10*
X209081Y-227145D02*
X217018Y-227145D01*
X217018Y-235876D01*
G54D10*
X209081Y-227145D02*
X201144Y-227145D01*
X201144Y-235876D01*
G54D10*
X228925Y-148889D02*
X236862Y-148889D01*
X236862Y-140158D01*
G54D10*
X228925Y-148889D02*
X220987Y-148889D01*
X220987Y-140158D01*
G54D10*
X228925Y-116020D02*
X236862Y-116020D01*
X236862Y-124752D01*
G54D10*
X228925Y-116020D02*
X220987Y-116020D01*
X220987Y-124752D01*
G54D10*
X194000Y-148889D02*
X201937Y-148889D01*
X201937Y-140158D01*
G54D10*
X194000Y-148889D02*
X186062Y-148889D01*
X186062Y-140158D01*
G54D10*
X194000Y-116020D02*
X201937Y-116020D01*
X201937Y-124752D01*
G54D10*
X194000Y-116020D02*
X186062Y-116020D01*
X186062Y-124752D01*
G54D10*
G75*
G01X425725Y-624026D02*
G03X425725Y-624026I-26000J0D01*
G01*
G54D10*
G75*
G01X59012Y-624026D02*
G03X59012Y-624026I-26000J0D01*
G01*
G54D10*
G75*
G01X425725Y-32683D02*
G03X425725Y-32683I-26000J0D01*
G01*
G54D10*
G75*
G01X59012Y-32683D02*
G03X59012Y-32683I-26000J0D01*
G01*
G54D10*
X91207Y-121384D02*
X99144Y-121385D01*
X99144Y-112653D01*
G54D10*
X91207Y-121384D02*
X83269Y-121385D01*
X83270Y-112653D01*
G54D10*
X91207Y-88516D02*
X99144Y-88516D01*
X99144Y-97247D01*
G54D10*
X91207Y-88516D02*
X83269Y-88516D01*
X83269Y-97247D01*
G54D10*
X187183Y-260014D02*
X195120Y-260014D01*
X195120Y-251283D01*
G54D10*
X187183Y-260014D02*
X179245Y-260014D01*
X179245Y-251283D01*
G54D10*
X187183Y-227145D02*
X195120Y-227145D01*
X195120Y-235876D01*
G54D10*
X187183Y-227145D02*
X179245Y-227145D01*
X179245Y-235876D01*
G54D11*
X130868Y-101110D02*
X129756Y-103110D01*
X128645Y-103777D01*
X126423Y-103777D01*
G54D11*
X126423Y-98443D02*
X135312Y-98443D01*
X135312Y-101777D01*
X134756Y-103110D01*
X133645Y-103777D01*
X132534Y-103777D01*
X131423Y-103110D01*
X130868Y-101777D01*
X130868Y-98443D01*
G54D11*
X126423Y-111554D02*
X126423Y-106220D01*
X126979Y-106220D01*
X128090Y-106887D01*
X131423Y-110887D01*
X132534Y-111554D01*
X133645Y-111554D01*
X134756Y-110887D01*
X135312Y-109554D01*
X135312Y-108220D01*
X134756Y-106887D01*
X133645Y-106220D01*
G54D12*
X26978Y-463269D02*
X20677Y-469570D01*
X20678Y-482369D01*
X26978Y-488670D01*
X39778Y-488669D01*
X46078Y-482369D01*
X46078Y-469569D01*
X39777Y-463269D01*
X26978Y-463269D01*
G54D12*
X295664Y-38858D02*
X301964Y-45158D01*
X314764Y-45158D01*
X321064Y-38858D01*
X321064Y-26059D01*
X314764Y-19758D01*
X301964Y-19758D01*
X295664Y-26058D01*
X295664Y-38858D01*
G54D12*
X321064Y-38858D02*
X327364Y-45158D01*
X340164Y-45158D01*
X346464Y-38858D01*
X346464Y-26059D01*
X340164Y-19758D01*
X327364Y-19758D01*
X321064Y-26059D01*
X321064Y-38858D01*
G54D12*
X270265Y-26058D02*
X263965Y-19758D01*
X251165Y-19758D01*
X244865Y-26058D01*
X244865Y-38858D01*
X251165Y-45158D01*
X263965Y-45158D01*
X270265Y-38858D01*
X270265Y-26058D01*
G54D12*
X244865Y-26058D02*
X238565Y-19758D01*
X225765Y-19758D01*
X219465Y-26058D01*
X219465Y-38858D01*
X225765Y-45158D01*
X238565Y-45158D01*
X244865Y-38858D01*
X244865Y-26058D01*
G54D12*
X219465Y-26058D02*
X213165Y-19758D01*
X200365Y-19758D01*
X194065Y-26058D01*
X194065Y-38858D01*
X200365Y-45158D01*
X213165Y-45158D01*
X219465Y-38858D01*
X219465Y-26058D01*
G54D12*
X136915Y-26058D02*
X130615Y-19758D01*
X117815Y-19758D01*
X111515Y-26058D01*
X111515Y-38858D01*
X117815Y-45158D01*
X130615Y-45158D01*
X136915Y-38858D01*
X136915Y-26058D01*
G54D12*
X111515Y-26058D02*
X105215Y-19758D01*
X92415Y-19758D01*
X86115Y-26058D01*
X86115Y-38858D01*
X92415Y-45158D01*
X105215Y-45158D01*
X111515Y-38858D01*
X111515Y-26058D01*
G54D11*
X108960Y-229697D02*
X117849Y-229697D01*
G54D11*
X117849Y-227030D02*
X117849Y-232364D01*
G54D11*
X116183Y-234808D02*
X117294Y-235474D01*
X117849Y-236808D01*
X117849Y-238141D01*
X117294Y-239474D01*
X116183Y-240141D01*
X115072Y-240141D01*
X113960Y-239474D01*
X113405Y-238141D01*
X112849Y-239474D01*
X111738Y-240141D01*
X110627Y-240141D01*
X109516Y-239474D01*
X108960Y-238141D01*
X108960Y-236808D01*
X109516Y-235474D01*
X110627Y-234808D01*
G54D10*
X125342Y-609355D02*
X125341Y-601418D01*
X116610Y-601418D01*
G54D10*
X125342Y-609355D02*
X125341Y-617293D01*
X116610Y-617293D01*
G54D10*
X92473Y-609355D02*
X92472Y-601418D01*
X101204Y-601418D01*
G54D10*
X92473Y-609355D02*
X92472Y-617293D01*
X101204Y-617293D01*
G54D10*
X165823Y-609355D02*
X165822Y-601418D01*
X157091Y-601418D01*
G54D10*
X165823Y-609355D02*
X165822Y-617293D01*
X157091Y-617293D01*
G54D10*
X132954Y-609355D02*
X132954Y-601418D01*
X141685Y-601418D01*
G54D10*
X132954Y-609355D02*
X132954Y-617293D01*
X141685Y-617293D01*
G54D10*
X228925Y-107614D02*
X236862Y-107614D01*
X236862Y-98883D01*
G54D10*
X228925Y-107614D02*
X220987Y-107614D01*
X220987Y-98883D01*
G54D10*
X228925Y-74745D02*
X236862Y-74745D01*
X236862Y-83476D01*
G54D10*
X228925Y-74745D02*
X220987Y-74745D01*
X220987Y-83476D01*
G54D10*
X194000Y-107614D02*
X201937Y-107614D01*
X201937Y-98883D01*
G54D10*
X194000Y-107614D02*
X186062Y-107614D01*
X186062Y-98883D01*
G54D10*
X194000Y-74745D02*
X201937Y-74745D01*
X201937Y-83476D01*
G54D10*
X194000Y-74745D02*
X186062Y-74745D01*
X186062Y-83476D01*
G54D11*
X324929Y-291624D02*
X326929Y-292735D01*
X327596Y-293846D01*
X327596Y-296068D01*
G54D11*
X322262Y-296068D02*
X322262Y-287180D01*
X325596Y-287180D01*
X326929Y-287735D01*
X327596Y-288846D01*
X327596Y-289957D01*
X326929Y-291068D01*
X325596Y-291624D01*
X322262Y-291624D01*
G54D11*
X330040Y-290513D02*
X333373Y-287180D01*
X333373Y-296068D01*
G54D11*
X341150Y-287180D02*
X335816Y-287180D01*
X335816Y-291068D01*
X336483Y-291068D01*
X337816Y-290513D01*
X339150Y-290513D01*
X340483Y-291068D01*
X341150Y-292180D01*
X341150Y-294402D01*
X340483Y-295513D01*
X339150Y-296068D01*
X337816Y-296068D01*
X336483Y-295513D01*
X335816Y-294402D01*
G54D11*
X369379Y-291624D02*
X371379Y-292735D01*
X372046Y-293846D01*
X372046Y-296068D01*
G54D11*
X366712Y-296068D02*
X366712Y-287180D01*
X370046Y-287180D01*
X371379Y-287735D01*
X372046Y-288846D01*
X372046Y-289957D01*
X371379Y-291068D01*
X370046Y-291624D01*
X366712Y-291624D01*
G54D11*
X374490Y-290513D02*
X377823Y-287180D01*
X377823Y-296068D01*
G54D11*
X385600Y-288846D02*
X384933Y-287735D01*
X383600Y-287180D01*
X382266Y-287180D01*
X380933Y-287735D01*
X380266Y-288846D01*
X380266Y-291624D01*
X380266Y-292180D01*
X382266Y-291068D01*
X383600Y-291068D01*
X384933Y-291624D01*
X385600Y-292735D01*
X385600Y-294402D01*
X384933Y-295513D01*
X383600Y-296068D01*
X382266Y-296068D01*
X380933Y-295513D01*
X380266Y-294402D01*
X380266Y-291624D01*
G54D11*
X412282Y-355093D02*
X411615Y-356204D01*
X410282Y-356759D01*
X408948Y-356759D01*
X407615Y-356204D01*
X406948Y-355093D01*
X406948Y-349537D01*
X407615Y-348426D01*
X408948Y-347870D01*
X410282Y-347870D01*
X411615Y-348426D01*
X412282Y-349537D01*
G54D11*
X418725Y-356759D02*
X418725Y-347870D01*
X414725Y-353426D01*
X414725Y-354537D01*
X420059Y-354537D01*
G54D12*
X361156Y-334169D02*
X361156Y-325438D01*
G54D12*
X356791Y-329803D02*
X365522Y-329803D01*
G54D11*
X196558Y-466267D02*
X198558Y-467378D01*
X199225Y-468490D01*
X199225Y-470712D01*
G54D11*
X193892Y-470712D02*
X193892Y-461823D01*
X197225Y-461823D01*
X198558Y-462378D01*
X199225Y-463490D01*
X199225Y-464601D01*
X198558Y-465712D01*
X197225Y-466267D01*
X193892Y-466267D01*
G54D11*
X201669Y-465156D02*
X205002Y-461823D01*
X205002Y-470712D01*
G54D11*
X210779Y-466267D02*
X209446Y-466267D01*
X208112Y-465712D01*
X207446Y-464601D01*
X207446Y-463490D01*
X208112Y-462378D01*
X209446Y-461823D01*
X210779Y-461823D01*
X212112Y-462378D01*
X212779Y-463490D01*
X212779Y-464601D01*
X212112Y-465712D01*
X210779Y-466267D01*
X212112Y-466823D01*
X212779Y-467934D01*
X212779Y-469045D01*
X212112Y-470156D01*
X210779Y-470712D01*
X209446Y-470712D01*
X208112Y-470156D01*
X207446Y-469045D01*
X207446Y-467934D01*
X208112Y-466823D01*
X209446Y-466267D01*
G54D11*
X196558Y-482936D02*
X198558Y-484047D01*
X199225Y-485158D01*
X199225Y-487380D01*
G54D11*
X193892Y-487380D02*
X193892Y-478492D01*
X197225Y-478492D01*
X198558Y-479047D01*
X199225Y-480158D01*
X199225Y-481269D01*
X198558Y-482380D01*
X197225Y-482936D01*
X193892Y-482936D01*
G54D11*
X201669Y-481825D02*
X205002Y-478492D01*
X205002Y-487380D01*
G54D11*
X207446Y-485714D02*
X208112Y-486825D01*
X209446Y-487380D01*
X210779Y-487380D01*
X212112Y-486825D01*
X212779Y-485714D01*
X212779Y-482936D01*
X212779Y-482380D01*
X210779Y-483492D01*
X209446Y-483492D01*
X208112Y-482936D01*
X207446Y-481825D01*
X207446Y-480158D01*
X208112Y-479047D01*
X209446Y-478492D01*
X210779Y-478492D01*
X212112Y-479047D01*
X212779Y-480158D01*
X212779Y-482936D01*
G54D11*
X212624Y-86029D02*
X211513Y-88029D01*
X210402Y-88695D01*
X208179Y-88695D01*
G54D11*
X208179Y-83362D02*
X217068Y-83362D01*
X217068Y-86695D01*
X216513Y-88029D01*
X215402Y-88695D01*
X214290Y-88695D01*
X213179Y-88029D01*
X212624Y-86695D01*
X212624Y-83362D01*
G54D11*
X208179Y-95139D02*
X217068Y-95139D01*
X211513Y-91139D01*
X210402Y-91139D01*
X210402Y-96472D01*
G54D11*
X212624Y-127304D02*
X211513Y-129304D01*
X210402Y-129970D01*
X208179Y-129970D01*
G54D11*
X208179Y-124637D02*
X217068Y-124637D01*
X217068Y-127970D01*
X216513Y-129304D01*
X215402Y-129970D01*
X214290Y-129970D01*
X213179Y-129304D01*
X212624Y-127970D01*
X212624Y-124637D01*
G54D11*
X215402Y-137747D02*
X216513Y-137081D01*
X217068Y-135747D01*
X217068Y-134414D01*
X216513Y-133081D01*
X215402Y-132414D01*
X212624Y-132414D01*
X212068Y-132414D01*
X213179Y-134414D01*
X213179Y-135747D01*
X212624Y-137081D01*
X211513Y-137747D01*
X209846Y-137747D01*
X208735Y-137081D01*
X208179Y-135747D01*
X208179Y-134414D01*
X208735Y-133081D01*
X209846Y-132414D01*
X212624Y-132414D01*
G54D11*
X177699Y-86029D02*
X176588Y-88029D01*
X175477Y-88695D01*
X173254Y-88695D01*
G54D11*
X173254Y-83362D02*
X182143Y-83362D01*
X182143Y-86695D01*
X181588Y-88029D01*
X180477Y-88695D01*
X179365Y-88695D01*
X178254Y-88029D01*
X177699Y-86695D01*
X177699Y-83362D01*
G54D11*
X180477Y-91139D02*
X181588Y-91806D01*
X182143Y-93139D01*
X182143Y-94472D01*
X181588Y-95806D01*
X180477Y-96472D01*
X179365Y-96472D01*
X178254Y-95806D01*
X177699Y-94472D01*
X177143Y-95806D01*
X176032Y-96472D01*
X174921Y-96472D01*
X173810Y-95806D01*
X173254Y-94472D01*
X173254Y-93139D01*
X173810Y-91806D01*
X174921Y-91139D01*
G54D11*
X177699Y-127304D02*
X176588Y-129304D01*
X175477Y-129970D01*
X173254Y-129970D01*
G54D11*
X173254Y-124637D02*
X182143Y-124637D01*
X182143Y-127970D01*
X181588Y-129304D01*
X180477Y-129970D01*
X179365Y-129970D01*
X178254Y-129304D01*
X177699Y-127970D01*
X177699Y-124637D01*
G54D11*
X182143Y-137747D02*
X182143Y-132414D01*
X178254Y-132414D01*
X178254Y-133081D01*
X178810Y-134414D01*
X178810Y-135747D01*
X178254Y-137081D01*
X177143Y-137747D01*
X174921Y-137747D01*
X173810Y-137081D01*
X173254Y-135747D01*
X173254Y-134414D01*
X173810Y-133081D01*
X174921Y-132414D01*
G54D10*
X164470Y-259871D02*
X172407Y-259871D01*
X172407Y-251140D01*
G54D10*
X164470Y-259871D02*
X156532Y-259871D01*
X156532Y-251140D01*
G54D10*
X164470Y-227002D02*
X172407Y-227002D01*
X172407Y-235733D01*
G54D10*
X164470Y-227002D02*
X156532Y-227002D01*
X156532Y-235733D01*
G54D10*
X142245Y-259871D02*
X150182Y-259871D01*
X150182Y-251140D01*
G54D10*
X142245Y-259871D02*
X134307Y-259871D01*
X134307Y-251140D01*
G54D10*
X142245Y-227002D02*
X150182Y-227002D01*
X150182Y-235733D01*
G54D10*
X142245Y-227002D02*
X134307Y-227002D01*
X134307Y-235733D01*
G54D11*
X168846Y-305514D02*
X168179Y-306625D01*
X166846Y-307181D01*
X165512Y-307181D01*
X164179Y-306625D01*
X163512Y-305514D01*
X163512Y-299959D01*
X164179Y-298848D01*
X165512Y-298292D01*
X166846Y-298292D01*
X168179Y-298848D01*
X168846Y-299959D01*
G54D11*
X171290Y-301625D02*
X174623Y-298292D01*
X174623Y-307181D01*
G54D11*
X225996Y-305514D02*
X225329Y-306625D01*
X223996Y-307181D01*
X222662Y-307181D01*
X221329Y-306625D01*
X220662Y-305514D01*
X220662Y-299959D01*
X221329Y-298848D01*
X222662Y-298292D01*
X223996Y-298292D01*
X225329Y-298848D01*
X225996Y-299959D01*
G54D11*
X233773Y-307181D02*
X228440Y-307181D01*
X228440Y-306625D01*
X229106Y-305514D01*
X233106Y-302181D01*
X233773Y-301070D01*
X233773Y-299959D01*
X233106Y-298848D01*
X231773Y-298292D01*
X230440Y-298292D01*
X229106Y-298848D01*
X228440Y-299959D01*
G54D11*
X288073Y-528580D02*
X288073Y-519691D01*
G54D11*
X285406Y-519691D02*
X290740Y-519691D01*
G54D11*
X298517Y-519691D02*
X293183Y-519691D01*
X293183Y-523580D01*
X293850Y-523580D01*
X295183Y-523024D01*
X296517Y-523024D01*
X297850Y-523580D01*
X298517Y-524691D01*
X298517Y-526913D01*
X297850Y-528024D01*
X296517Y-528580D01*
X295183Y-528580D01*
X293850Y-528024D01*
X293183Y-526913D01*
G54D11*
X288073Y-572236D02*
X288073Y-563348D01*
G54D11*
X285406Y-563348D02*
X290740Y-563348D01*
G54D11*
X293184Y-570570D02*
X293850Y-571681D01*
X295184Y-572236D01*
X296517Y-572236D01*
X297850Y-571681D01*
X298517Y-570570D01*
X298517Y-567792D01*
X298517Y-567236D01*
X296517Y-568348D01*
X295184Y-568348D01*
X293850Y-567792D01*
X293184Y-566681D01*
X293184Y-565014D01*
X293850Y-563903D01*
X295184Y-563348D01*
X296517Y-563348D01*
X297850Y-563903D01*
X298517Y-565014D01*
X298517Y-567792D01*
G54D11*
X168291Y-528581D02*
X168291Y-519692D01*
G54D11*
X165624Y-519692D02*
X170958Y-519692D01*
G54D11*
X177401Y-528581D02*
X177401Y-519692D01*
X173401Y-525247D01*
X173401Y-526358D01*
X178735Y-526358D01*
G54D11*
X168288Y-572239D02*
X168288Y-563350D01*
G54D11*
X165622Y-563350D02*
X170955Y-563350D01*
G54D11*
X173398Y-563350D02*
X178732Y-563350D01*
X178065Y-564461D01*
X176732Y-566128D01*
X175398Y-568350D01*
X174732Y-570016D01*
X174732Y-572239D01*
G54D11*
X327527Y-188930D02*
X327527Y-180042D01*
G54D11*
X324860Y-180042D02*
X330194Y-180042D01*
G54D11*
X335304Y-184486D02*
X337304Y-185597D01*
X337971Y-186708D01*
X337971Y-188930D01*
G54D11*
X332638Y-188930D02*
X332638Y-180042D01*
X335971Y-180042D01*
X337304Y-180597D01*
X337971Y-181708D01*
X337971Y-182819D01*
X337304Y-183930D01*
X335971Y-184486D01*
X332638Y-184486D01*
G54D11*
X340414Y-183375D02*
X343748Y-180042D01*
X343748Y-188930D01*
G54D11*
X187224Y-199535D02*
X186113Y-201535D01*
X185001Y-202201D01*
X182779Y-202201D01*
G54D11*
X182779Y-196868D02*
X191668Y-196868D01*
X191668Y-200201D01*
X191113Y-201535D01*
X190001Y-202201D01*
X188890Y-202201D01*
X187779Y-201535D01*
X187224Y-200201D01*
X187224Y-196868D01*
G54D11*
X188335Y-204645D02*
X191668Y-207978D01*
X182779Y-207978D01*
G54D11*
X190001Y-215755D02*
X184446Y-215755D01*
X183335Y-215089D01*
X182779Y-213755D01*
X182779Y-212422D01*
X183335Y-211089D01*
X184446Y-210422D01*
X190001Y-210422D01*
X191113Y-211089D01*
X191668Y-212422D01*
X191668Y-213755D01*
X191113Y-215089D01*
X190001Y-215755D01*
G54D11*
X208655Y-199535D02*
X207544Y-201535D01*
X206433Y-202201D01*
X204210Y-202201D01*
G54D11*
X204210Y-196868D02*
X213099Y-196868D01*
X213099Y-200201D01*
X212544Y-201535D01*
X211433Y-202201D01*
X210322Y-202201D01*
X209210Y-201535D01*
X208655Y-200201D01*
X208655Y-196868D01*
G54D11*
X209766Y-204645D02*
X213099Y-207978D01*
X204210Y-207978D01*
G54D11*
X209766Y-210422D02*
X213099Y-213755D01*
X204210Y-213755D01*
G54D11*
X230880Y-199535D02*
X229769Y-201535D01*
X228658Y-202201D01*
X226436Y-202201D01*
G54D11*
X226436Y-196868D02*
X235324Y-196868D01*
X235324Y-200201D01*
X234769Y-201535D01*
X233658Y-202201D01*
X232547Y-202201D01*
X231436Y-201535D01*
X230880Y-200201D01*
X230880Y-196868D01*
G54D11*
X231991Y-204645D02*
X235324Y-207978D01*
X226436Y-207978D01*
G54D11*
X226436Y-215755D02*
X226436Y-210422D01*
X226991Y-210422D01*
X228102Y-211089D01*
X231436Y-215089D01*
X232547Y-215755D01*
X233658Y-215755D01*
X234769Y-215089D01*
X235324Y-213755D01*
X235324Y-212422D01*
X234769Y-211089D01*
X233658Y-210422D01*
G54D11*
X146424Y-206964D02*
X139202Y-206964D01*
X138091Y-206297D01*
X137536Y-204964D01*
X137536Y-203630D01*
X138091Y-202297D01*
X139202Y-201630D01*
G54D11*
X137536Y-214741D02*
X137536Y-209408D01*
X138091Y-209408D01*
X139202Y-210074D01*
X142536Y-214074D01*
X143647Y-214741D01*
X144758Y-214741D01*
X145869Y-214074D01*
X146424Y-212741D01*
X146424Y-211408D01*
X145869Y-210074D01*
X144758Y-209408D01*
G54D11*
X168649Y-206964D02*
X161427Y-206964D01*
X160316Y-206297D01*
X159760Y-204964D01*
X159760Y-203630D01*
X160316Y-202297D01*
X161427Y-201630D01*
G54D11*
X165316Y-209408D02*
X168649Y-212741D01*
X159760Y-212741D01*
G54D11*
X221165Y-598506D02*
X221165Y-589617D01*
G54D11*
X218498Y-589617D02*
X223831Y-589617D01*
G54D11*
X229608Y-594061D02*
X228275Y-594061D01*
X226942Y-593506D01*
X226275Y-592394D01*
X226275Y-591283D01*
X226942Y-590172D01*
X228275Y-589617D01*
X229608Y-589617D01*
X230942Y-590172D01*
X231608Y-591283D01*
X231608Y-592394D01*
X230942Y-593506D01*
X229608Y-594061D01*
X230942Y-594617D01*
X231608Y-595728D01*
X231608Y-596839D01*
X230942Y-597950D01*
X229608Y-598506D01*
X228275Y-598506D01*
X226942Y-597950D01*
X226275Y-596839D01*
X226275Y-595728D01*
X226942Y-594617D01*
X228275Y-594061D01*
G54D11*
X101308Y-598506D02*
X101308Y-589617D01*
G54D11*
X98642Y-589617D02*
X103975Y-589617D01*
G54D11*
X111752Y-591283D02*
X111085Y-590172D01*
X109752Y-589617D01*
X108419Y-589617D01*
X107085Y-590172D01*
X106419Y-591283D01*
X106419Y-594061D01*
X106419Y-594617D01*
X108419Y-593506D01*
X109752Y-593506D01*
X111085Y-594061D01*
X111752Y-595172D01*
X111752Y-596839D01*
X111085Y-597950D01*
X109752Y-598506D01*
X108419Y-598506D01*
X107085Y-597950D01*
X106419Y-596839D01*
X106419Y-594061D01*
G54D11*
X101308Y-625017D02*
X103308Y-626128D01*
X103975Y-627240D01*
X103975Y-629462D01*
G54D11*
X98642Y-629462D02*
X98642Y-620573D01*
X101975Y-620573D01*
X103308Y-621128D01*
X103975Y-622240D01*
X103975Y-623351D01*
X103308Y-624462D01*
X101975Y-625017D01*
X98642Y-625017D01*
G54D11*
X111752Y-629462D02*
X106419Y-629462D01*
X106419Y-628906D01*
X107085Y-627795D01*
X111085Y-624462D01*
X111752Y-623351D01*
X111752Y-622240D01*
X111085Y-621128D01*
X109752Y-620573D01*
X108419Y-620573D01*
X107085Y-621128D01*
X106419Y-622240D01*
G54D11*
X117529Y-625017D02*
X116196Y-625017D01*
X114862Y-624462D01*
X114196Y-623351D01*
X114196Y-622240D01*
X114862Y-621128D01*
X116196Y-620573D01*
X117529Y-620573D01*
X118862Y-621128D01*
X119529Y-622240D01*
X119529Y-623351D01*
X118862Y-624462D01*
X117529Y-625017D01*
X118862Y-625573D01*
X119529Y-626684D01*
X119529Y-627795D01*
X118862Y-628906D01*
X117529Y-629462D01*
X116196Y-629462D01*
X114862Y-628906D01*
X114196Y-627795D01*
X114196Y-626684D01*
X114862Y-625573D01*
X116196Y-625017D01*
G54D11*
X141790Y-625017D02*
X143790Y-626128D01*
X144456Y-627240D01*
X144456Y-629462D01*
G54D11*
X139123Y-629462D02*
X139123Y-620573D01*
X142456Y-620573D01*
X143790Y-621128D01*
X144456Y-622240D01*
X144456Y-623351D01*
X143790Y-624462D01*
X142456Y-625017D01*
X139123Y-625017D01*
G54D11*
X152233Y-629462D02*
X146900Y-629462D01*
X146900Y-628906D01*
X147567Y-627795D01*
X151567Y-624462D01*
X152233Y-623351D01*
X152233Y-622240D01*
X151567Y-621128D01*
X150233Y-620573D01*
X148900Y-620573D01*
X147567Y-621128D01*
X146900Y-622240D01*
G54D11*
X154677Y-627795D02*
X155344Y-628906D01*
X156677Y-629462D01*
X158010Y-629462D01*
X159344Y-628906D01*
X160010Y-627795D01*
X160010Y-625017D01*
X160010Y-624462D01*
X158010Y-625573D01*
X156677Y-625573D01*
X155344Y-625017D01*
X154677Y-623906D01*
X154677Y-622240D01*
X155344Y-621128D01*
X156677Y-620573D01*
X158010Y-620573D01*
X159344Y-621128D01*
X160010Y-622240D01*
X160010Y-625017D01*
G54D11*
X184652Y-501192D02*
X186652Y-502303D01*
X187319Y-503414D01*
X187319Y-505637D01*
G54D11*
X181986Y-505637D02*
X181986Y-496748D01*
X185319Y-496748D01*
X186652Y-497303D01*
X187319Y-498414D01*
X187319Y-499526D01*
X186652Y-500637D01*
X185319Y-501192D01*
X181986Y-501192D01*
G54D11*
X195096Y-505637D02*
X189762Y-505637D01*
X189762Y-505081D01*
X190429Y-503970D01*
X194429Y-500637D01*
X195096Y-499526D01*
X195096Y-498414D01*
X194429Y-497303D01*
X193096Y-496748D01*
X191762Y-496748D01*
X190429Y-497303D01*
X189762Y-498414D01*
G54D11*
X197540Y-498414D02*
X198206Y-497303D01*
X199540Y-496748D01*
X200873Y-496748D01*
X202206Y-497303D01*
X202873Y-498414D01*
X202873Y-499526D01*
X202206Y-500637D01*
X200873Y-501192D01*
X202206Y-501748D01*
X202873Y-502859D01*
X202873Y-503970D01*
X202206Y-505081D01*
X200873Y-505637D01*
X199540Y-505637D01*
X198206Y-505081D01*
X197540Y-503970D01*
G54D11*
X229102Y-501192D02*
X231102Y-502303D01*
X231769Y-503414D01*
X231769Y-505637D01*
G54D11*
X226436Y-505637D02*
X226436Y-496748D01*
X229769Y-496748D01*
X231102Y-497303D01*
X231769Y-498414D01*
X231769Y-499526D01*
X231102Y-500637D01*
X229769Y-501192D01*
X226436Y-501192D01*
G54D11*
X239546Y-505637D02*
X234212Y-505637D01*
X234212Y-505081D01*
X234879Y-503970D01*
X238879Y-500637D01*
X239546Y-499526D01*
X239546Y-498414D01*
X238879Y-497303D01*
X237546Y-496748D01*
X236212Y-496748D01*
X234879Y-497303D01*
X234212Y-498414D01*
G54D11*
X247323Y-496748D02*
X241990Y-496748D01*
X241990Y-500637D01*
X242656Y-500637D01*
X243990Y-500081D01*
X245323Y-500081D01*
X246656Y-500637D01*
X247323Y-501748D01*
X247323Y-503970D01*
X246656Y-505081D01*
X245323Y-505637D01*
X243990Y-505637D01*
X242656Y-505081D01*
X241990Y-503970D01*
G54D11*
X65590Y-501192D02*
X67590Y-502303D01*
X68256Y-503414D01*
X68256Y-505637D01*
G54D11*
X62923Y-505637D02*
X62923Y-496748D01*
X66256Y-496748D01*
X67590Y-497303D01*
X68256Y-498414D01*
X68256Y-499526D01*
X67590Y-500637D01*
X66256Y-501192D01*
X62923Y-501192D01*
G54D11*
X76033Y-505637D02*
X70700Y-505637D01*
X70700Y-505081D01*
X71367Y-503970D01*
X75367Y-500637D01*
X76033Y-499526D01*
X76033Y-498414D01*
X75367Y-497303D01*
X74033Y-496748D01*
X72700Y-496748D01*
X71367Y-497303D01*
X70700Y-498414D01*
G54D11*
X83810Y-498414D02*
X83810Y-503970D01*
X83144Y-505081D01*
X81810Y-505637D01*
X80477Y-505637D01*
X79144Y-505081D01*
X78477Y-503970D01*
X78477Y-498414D01*
X79144Y-497303D01*
X80477Y-496748D01*
X81810Y-496748D01*
X83144Y-497303D01*
X83810Y-498414D01*
G54D11*
X108452Y-501192D02*
X110452Y-502303D01*
X111119Y-503414D01*
X111119Y-505637D01*
G54D11*
X105786Y-505637D02*
X105786Y-496748D01*
X109119Y-496748D01*
X110452Y-497303D01*
X111119Y-498414D01*
X111119Y-499526D01*
X110452Y-500637D01*
X109119Y-501192D01*
X105786Y-501192D01*
G54D11*
X118896Y-505637D02*
X113562Y-505637D01*
X113562Y-505081D01*
X114229Y-503970D01*
X118229Y-500637D01*
X118896Y-499526D01*
X118896Y-498414D01*
X118229Y-497303D01*
X116896Y-496748D01*
X115562Y-496748D01*
X114229Y-497303D01*
X113562Y-498414D01*
G54D11*
X126673Y-505637D02*
X121340Y-505637D01*
X121340Y-505081D01*
X122006Y-503970D01*
X126006Y-500637D01*
X126673Y-499526D01*
X126673Y-498414D01*
X126006Y-497303D01*
X124673Y-496748D01*
X123340Y-496748D01*
X122006Y-497303D01*
X121340Y-498414D01*
G54D11*
X186014Y-594258D02*
X188014Y-595369D01*
X188680Y-596480D01*
X188680Y-598702D01*
G54D11*
X183347Y-598702D02*
X183347Y-589813D01*
X186680Y-589813D01*
X188014Y-590369D01*
X188680Y-591480D01*
X188680Y-592591D01*
X188014Y-593702D01*
X186680Y-594258D01*
X183347Y-594258D01*
G54D11*
X196457Y-598702D02*
X191124Y-598702D01*
X191124Y-598147D01*
X191791Y-597036D01*
X195791Y-593702D01*
X196457Y-592591D01*
X196457Y-591480D01*
X195791Y-590369D01*
X194457Y-589813D01*
X193124Y-589813D01*
X191791Y-590369D01*
X191124Y-591480D01*
G54D11*
X198901Y-589813D02*
X204234Y-589813D01*
X203568Y-590924D01*
X202234Y-592591D01*
X200901Y-594813D01*
X200234Y-596480D01*
X200234Y-598702D01*
G54D11*
X66372Y-600040D02*
X68372Y-601151D01*
X69039Y-602262D01*
X69039Y-604484D01*
G54D11*
X63705Y-604484D02*
X63705Y-595595D01*
X67039Y-595595D01*
X68372Y-596150D01*
X69039Y-597262D01*
X69039Y-598373D01*
X68372Y-599484D01*
X67039Y-600040D01*
X63705Y-600040D01*
G54D11*
X76816Y-604484D02*
X71482Y-604484D01*
X71482Y-603928D01*
X72149Y-602817D01*
X76149Y-599484D01*
X76816Y-598373D01*
X76816Y-597262D01*
X76149Y-596150D01*
X74816Y-595595D01*
X73482Y-595595D01*
X72149Y-596150D01*
X71482Y-597262D01*
G54D11*
X84593Y-597262D02*
X83926Y-596151D01*
X82593Y-595595D01*
X81259Y-595595D01*
X79926Y-596151D01*
X79259Y-597262D01*
X79259Y-600040D01*
X79259Y-600595D01*
X81259Y-599484D01*
X82593Y-599484D01*
X83926Y-600039D01*
X84593Y-601150D01*
X84593Y-602817D01*
X83926Y-603928D01*
X82593Y-604484D01*
X81259Y-604484D01*
X79926Y-603928D01*
X79259Y-602817D01*
X79259Y-600040D01*
G54D11*
X233071Y-482936D02*
X235071Y-484047D01*
X235738Y-485158D01*
X235738Y-487380D01*
G54D11*
X230404Y-487380D02*
X230404Y-478492D01*
X233738Y-478492D01*
X235071Y-479047D01*
X235738Y-480158D01*
X235738Y-481269D01*
X235071Y-482380D01*
X233738Y-482936D01*
X230404Y-482936D01*
G54D11*
X243515Y-487380D02*
X238181Y-487380D01*
X238181Y-486825D01*
X238848Y-485714D01*
X242848Y-482380D01*
X243515Y-481269D01*
X243515Y-480158D01*
X242848Y-479047D01*
X241515Y-478492D01*
X240181Y-478492D01*
X238848Y-479047D01*
X238181Y-480158D01*
G54D11*
X249958Y-487380D02*
X249958Y-478492D01*
X245958Y-484047D01*
X245958Y-485158D01*
X251292Y-485158D01*
G54D10*
X251619Y-489744D02*
X228600Y-489744D01*
X219075Y-506412D01*
G54D11*
X71146Y-482936D02*
X73146Y-484047D01*
X73813Y-485158D01*
X73813Y-487380D01*
G54D11*
X68479Y-487380D02*
X68479Y-478492D01*
X71813Y-478492D01*
X73146Y-479047D01*
X73813Y-480158D01*
X73813Y-481269D01*
X73146Y-482380D01*
X71813Y-482936D01*
X68479Y-482936D01*
G54D11*
X81590Y-487380D02*
X76256Y-487380D01*
X76256Y-486825D01*
X76923Y-485714D01*
X80923Y-482380D01*
X81590Y-481269D01*
X81590Y-480158D01*
X80923Y-479047D01*
X79590Y-478492D01*
X78256Y-478492D01*
X76923Y-479047D01*
X76256Y-480158D01*
G54D11*
X84033Y-481825D02*
X87367Y-478492D01*
X87367Y-487380D01*
G54D10*
X68262Y-489744D02*
X85725Y-489744D01*
X90488Y-506412D01*
G54D10*
X61842Y-295824D02*
X61841Y-287886D01*
X53110Y-287886D01*
G54D10*
X61842Y-295824D02*
X61841Y-303762D01*
X53110Y-303761D01*
G54D10*
X28973Y-295824D02*
X28972Y-287886D01*
X37704Y-287886D01*
G54D10*
X28973Y-295824D02*
X28972Y-303762D01*
X37704Y-303762D01*
G54D11*
X38483Y-278851D02*
X40483Y-279962D01*
X41149Y-281073D01*
X41149Y-283295D01*
G54D11*
X35816Y-283295D02*
X35816Y-274406D01*
X39149Y-274406D01*
X40483Y-274962D01*
X41149Y-276073D01*
X41149Y-277184D01*
X40483Y-278295D01*
X39149Y-278851D01*
X35816Y-278851D01*
G54D11*
X43593Y-277739D02*
X46926Y-274406D01*
X46926Y-283295D01*
G54D11*
X49370Y-276073D02*
X50037Y-274962D01*
X51370Y-274406D01*
X52703Y-274406D01*
X54037Y-274962D01*
X54703Y-276073D01*
X54703Y-277184D01*
X54037Y-278295D01*
X52703Y-278851D01*
X54037Y-279406D01*
X54703Y-280517D01*
X54703Y-281628D01*
X54037Y-282739D01*
X52703Y-283295D01*
X51370Y-283295D01*
X50037Y-282739D01*
X49370Y-281628D01*
G54D14*
X209550Y-632619D02*
X215550Y-616619D01*
X221550Y-632619D01*
G54D14*
X211950Y-626619D02*
X219150Y-626619D01*
G54D14*
X225950Y-616619D02*
X225950Y-632619D01*
X234350Y-632619D01*
G54D14*
X238750Y-632619D02*
X248350Y-632619D01*
G54D14*
X243550Y-632619D02*
X243550Y-616619D01*
G54D14*
X238750Y-616619D02*
X248350Y-616619D01*
G54D14*
X252750Y-632619D02*
X252750Y-616619D01*
X262350Y-632619D01*
X262350Y-616619D01*
G54D14*
X266750Y-632619D02*
X272750Y-616619D01*
X278750Y-632619D01*
G54D14*
X269150Y-626619D02*
X276350Y-626619D01*
G54D14*
X297390Y-629619D02*
X296190Y-631619D01*
X293790Y-632619D01*
X291390Y-632619D01*
X288990Y-631619D01*
X287790Y-629619D01*
X287790Y-619619D01*
X288990Y-617619D01*
X291390Y-616619D01*
X293790Y-616619D01*
X296190Y-617619D01*
X297390Y-619619D01*
G54D14*
X308990Y-630219D02*
X308990Y-626219D01*
X307790Y-624219D01*
X305390Y-623619D01*
X302990Y-624219D01*
X301790Y-626219D01*
X301790Y-630219D01*
X302990Y-632219D01*
X305390Y-632619D01*
X307790Y-632219D01*
X308990Y-630219D01*
G54D14*
X313390Y-632619D02*
X313390Y-623619D01*
G54D14*
X313390Y-625619D02*
X314590Y-624219D01*
X316990Y-623619D01*
X319390Y-624219D01*
X320590Y-625619D01*
X320590Y-632619D01*
G54D14*
X327390Y-616619D02*
X327390Y-631619D01*
X328590Y-632619D01*
X329790Y-632219D01*
G54D14*
X324990Y-623619D02*
X329790Y-623619D01*
G54D14*
X334190Y-632619D02*
X334190Y-623619D01*
G54D14*
X334190Y-625619D02*
X336590Y-623619D01*
X338990Y-623619D01*
G54D14*
X350590Y-630219D02*
X350590Y-626219D01*
X349390Y-624219D01*
X346990Y-623619D01*
X344590Y-624219D01*
X343390Y-626219D01*
X343390Y-630219D01*
X344590Y-632219D01*
X346990Y-632619D01*
X349390Y-632219D01*
X350590Y-630219D01*
G54D14*
X354990Y-632619D02*
X354990Y-616619D01*
G54D11*
X87598Y-11430D02*
X90265Y-11430D01*
X90265Y-14208D01*
X89598Y-15319D01*
X88265Y-15875D01*
X86931Y-15875D01*
X85598Y-15319D01*
X84931Y-14208D01*
X84931Y-8652D01*
X85598Y-7541D01*
X86931Y-6986D01*
X88265Y-6986D01*
X89598Y-7541D01*
X90265Y-8652D01*
G54D11*
X92708Y-15875D02*
X92708Y-6986D01*
X98042Y-15875D01*
X98042Y-6986D01*
G54D11*
X100485Y-15875D02*
X100485Y-6986D01*
X103819Y-6986D01*
X105152Y-7541D01*
X105819Y-8652D01*
X105819Y-14208D01*
X105152Y-15319D01*
X103819Y-15875D01*
X100485Y-15875D01*
G54D11*
X120935Y-11430D02*
X122935Y-12541D01*
X123602Y-13652D01*
X123602Y-15875D01*
G54D11*
X118269Y-15875D02*
X118269Y-6986D01*
X121602Y-6986D01*
X122935Y-7541D01*
X123602Y-8652D01*
X123602Y-9764D01*
X122935Y-10875D01*
X121602Y-11430D01*
X118269Y-11430D01*
G54D11*
X126046Y-6986D02*
X132712Y-15875D01*
G54D11*
X126046Y-15875D02*
X132712Y-6986D01*
G54D11*
X222027Y-15875D02*
X216694Y-15875D01*
X216694Y-15319D01*
X217360Y-14208D01*
X221360Y-10875D01*
X222027Y-9764D01*
X222027Y-8652D01*
X221360Y-7541D01*
X220027Y-6986D01*
X218694Y-6986D01*
X217360Y-7541D01*
X216694Y-8652D01*
G54D11*
X229804Y-15875D02*
X224471Y-15875D01*
X224471Y-15319D01*
X225137Y-14208D01*
X229137Y-10875D01*
X229804Y-9764D01*
X229804Y-8652D01*
X229137Y-7541D01*
X227804Y-6986D01*
X226471Y-6986D01*
X225137Y-7541D01*
X224471Y-8652D01*
G54D11*
X237581Y-8652D02*
X237581Y-14208D01*
X236914Y-15319D01*
X235581Y-15875D01*
X234248Y-15875D01*
X232914Y-15319D01*
X232248Y-14208D01*
X232248Y-8652D01*
X232914Y-7541D01*
X234248Y-6986D01*
X235581Y-6986D01*
X236914Y-7541D01*
X237581Y-8652D01*
G54D11*
X242602Y-6986D02*
X245935Y-15875D01*
X249268Y-6986D01*
G54D11*
X291592Y-15875D02*
X291592Y-6986D01*
G54D11*
X288925Y-6986D02*
X294258Y-6986D01*
G54D11*
X296702Y-15875D02*
X296702Y-10875D01*
G54D11*
X296702Y-11986D02*
X298035Y-10875D01*
X299369Y-10875D01*
G54D11*
X302346Y-15875D02*
X301813Y-15875D01*
X301813Y-15430D01*
X302346Y-15430D01*
X302346Y-15875D01*
X301813Y-15875D01*
G54D11*
X304790Y-11986D02*
X310123Y-11986D01*
G54D11*
X317900Y-14208D02*
X317234Y-15319D01*
X315900Y-15875D01*
X314567Y-15875D01*
X313234Y-15319D01*
X312567Y-14208D01*
X312567Y-8652D01*
X313234Y-7541D01*
X314567Y-6986D01*
X315900Y-6986D01*
X317234Y-7541D01*
X317900Y-8652D01*
G54D11*
X324344Y-10875D02*
X324344Y-15875D01*
G54D11*
X324344Y-14764D02*
X323677Y-15652D01*
X322344Y-15875D01*
X321011Y-15652D01*
X320344Y-14764D01*
X320344Y-10875D01*
G54D11*
X326788Y-15875D02*
X326788Y-10875D01*
G54D11*
X326788Y-11986D02*
X328121Y-10875D01*
X329455Y-10875D01*
G54D11*
X331899Y-15875D02*
X331899Y-10875D01*
G54D11*
X331899Y-11986D02*
X333232Y-10875D01*
X334566Y-10875D01*
G54D11*
X341010Y-15319D02*
X339943Y-15875D01*
X338610Y-15875D01*
X337277Y-15319D01*
X337010Y-14208D01*
X337010Y-12319D01*
X337677Y-11208D01*
X339010Y-10875D01*
X340343Y-11208D01*
X341010Y-11986D01*
X341010Y-13097D01*
X337010Y-13097D01*
G54D11*
X343454Y-15875D02*
X343454Y-10875D01*
G54D11*
X343454Y-11986D02*
X344121Y-11208D01*
X345454Y-10875D01*
X346787Y-11208D01*
X347454Y-11986D01*
X347454Y-15875D01*
G54D11*
X351231Y-6986D02*
X351231Y-15319D01*
X351898Y-15875D01*
X352565Y-15652D01*
G54D11*
X349898Y-10875D02*
X352565Y-10875D01*
G54D11*
X8403Y-362607D02*
X17292Y-362607D01*
X17292Y-365941D01*
X16737Y-367274D01*
X15625Y-367941D01*
X14514Y-367941D01*
X13403Y-367274D01*
X12848Y-365941D01*
X12848Y-362607D01*
G54D11*
X8403Y-370384D02*
X13403Y-370384D01*
G54D11*
X12292Y-370384D02*
X13403Y-371718D01*
X13403Y-373051D01*
G54D11*
X9737Y-379495D02*
X11959Y-379495D01*
X13070Y-378829D01*
X13403Y-377495D01*
X13070Y-376162D01*
X11959Y-375495D01*
X9737Y-375495D01*
X8625Y-376162D01*
X8403Y-377495D01*
X8625Y-378829D01*
X9737Y-379495D01*
G54D11*
X6737Y-381939D02*
X6181Y-383273D01*
X6181Y-384206D01*
X6737Y-385539D01*
X7848Y-385939D01*
X13403Y-385939D01*
G54D11*
X11959Y-385939D02*
X13070Y-385273D01*
X13403Y-383939D01*
X13070Y-382606D01*
X11959Y-381939D01*
X9737Y-381939D01*
X8625Y-382606D01*
X8403Y-383939D01*
X8625Y-385273D01*
X9737Y-385939D01*
G54D11*
X8403Y-388383D02*
X13403Y-388383D01*
G54D11*
X12292Y-388383D02*
X13403Y-389717D01*
X13403Y-391050D01*
G54D11*
X12848Y-393494D02*
X13403Y-394828D01*
X13403Y-396428D01*
X12292Y-397494D01*
X8403Y-397494D01*
G54D11*
X10070Y-397494D02*
X11181Y-396828D01*
X11403Y-395494D01*
X11181Y-394161D01*
X10070Y-393494D01*
X8959Y-393761D01*
X8403Y-394828D01*
X8403Y-395494D01*
X8403Y-395761D01*
X8959Y-396828D01*
X10070Y-397494D01*
G54D11*
X8403Y-399938D02*
X13403Y-399938D01*
G54D11*
X12514Y-399938D02*
X13403Y-401272D01*
X13070Y-402605D01*
X12292Y-403272D01*
X8403Y-403272D01*
G54D11*
X12514Y-403272D02*
X13403Y-404605D01*
X13070Y-405938D01*
X12292Y-406605D01*
X8403Y-406605D01*
G54D11*
X8403Y-409049D02*
X13403Y-409049D01*
G54D11*
X12514Y-409049D02*
X13403Y-410383D01*
X13070Y-411716D01*
X12292Y-412383D01*
X8403Y-412383D01*
G54D11*
X12514Y-412383D02*
X13403Y-413716D01*
X13070Y-415049D01*
X12292Y-415716D01*
X8403Y-415716D01*
G54D11*
X8403Y-498339D02*
X8403Y-503672D01*
G54D11*
X8403Y-501005D02*
X17292Y-501005D01*
G54D11*
X17292Y-498339D02*
X17292Y-503672D01*
G54D11*
X8403Y-506116D02*
X13403Y-506116D01*
G54D11*
X12292Y-506116D02*
X13070Y-506782D01*
X13403Y-508116D01*
X13070Y-509449D01*
X12292Y-510116D01*
X8403Y-510116D01*
G54D11*
X8403Y-516560D02*
X17292Y-516560D01*
G54D11*
X11959Y-516560D02*
X13070Y-515893D01*
X13403Y-514560D01*
X13070Y-513226D01*
X11959Y-512560D01*
X9737Y-512560D01*
X8625Y-513226D01*
X8403Y-514560D01*
X8625Y-515893D01*
X9737Y-516560D01*
G54D11*
X8403Y-519004D02*
X13403Y-519004D01*
G54D11*
X15070Y-519004D02*
X15070Y-519004D01*
G54D11*
X13070Y-524781D02*
X13403Y-523448D01*
X13070Y-522114D01*
X11959Y-521448D01*
X9737Y-521448D01*
X8625Y-522114D01*
X8403Y-523448D01*
X8625Y-524781D01*
G54D11*
X12848Y-527225D02*
X13403Y-528558D01*
X13403Y-530158D01*
X12292Y-531225D01*
X8403Y-531225D01*
G54D11*
X10070Y-531225D02*
X11181Y-530558D01*
X11403Y-529225D01*
X11181Y-527891D01*
X10070Y-527225D01*
X8959Y-527491D01*
X8403Y-528558D01*
X8403Y-529225D01*
X8403Y-529491D01*
X8959Y-530558D01*
X10070Y-531225D01*
G54D11*
X17292Y-535002D02*
X8959Y-535002D01*
X8403Y-535669D01*
X8625Y-536335D01*
G54D11*
X13403Y-533669D02*
X13403Y-536335D01*
G54D11*
X8403Y-538780D02*
X13403Y-538780D01*
G54D11*
X15070Y-538780D02*
X15070Y-538780D01*
G54D11*
X9737Y-545224D02*
X11959Y-545224D01*
X13070Y-544557D01*
X13403Y-543224D01*
X13070Y-541890D01*
X11959Y-541224D01*
X9737Y-541224D01*
X8625Y-541890D01*
X8403Y-543224D01*
X8625Y-544557D01*
X9737Y-545224D01*
G54D11*
X8403Y-547668D02*
X13403Y-547668D01*
G54D11*
X12292Y-547668D02*
X13070Y-548334D01*
X13403Y-549668D01*
X13070Y-551001D01*
X12292Y-551668D01*
X8403Y-551668D01*
G54D11*
X341778Y-494370D02*
X350667Y-494370D01*
X350667Y-499036D01*
G54D11*
X346223Y-494370D02*
X346223Y-499036D01*
G54D11*
X343112Y-505481D02*
X345334Y-505481D01*
X346445Y-504814D01*
X346778Y-503481D01*
X346445Y-502148D01*
X345334Y-501481D01*
X343112Y-501481D01*
X342000Y-502148D01*
X341778Y-503481D01*
X342000Y-504814D01*
X343112Y-505481D01*
G54D11*
X341778Y-507925D02*
X346778Y-507925D01*
G54D11*
X345667Y-507925D02*
X346778Y-509258D01*
X346778Y-510592D01*
G54D11*
X346445Y-518946D02*
X346778Y-517613D01*
X346445Y-516280D01*
X345334Y-515613D01*
X343112Y-515613D01*
X342000Y-516280D01*
X341778Y-517613D01*
X342000Y-518946D01*
G54D11*
X343112Y-525390D02*
X345334Y-525390D01*
X346445Y-524723D01*
X346778Y-523390D01*
X346445Y-522056D01*
X345334Y-521390D01*
X343112Y-521390D01*
X342000Y-522056D01*
X341778Y-523390D01*
X342000Y-524723D01*
X343112Y-525390D01*
G54D11*
X341778Y-527834D02*
X346778Y-527834D01*
G54D11*
X345667Y-527834D02*
X346445Y-528500D01*
X346778Y-529834D01*
X346445Y-531167D01*
X345667Y-531834D01*
X341778Y-531834D01*
G54D11*
X350667Y-535611D02*
X342334Y-535611D01*
X341778Y-536278D01*
X342000Y-536944D01*
G54D11*
X346778Y-534278D02*
X346778Y-536944D01*
G54D11*
X341778Y-539389D02*
X346778Y-539389D01*
G54D11*
X345667Y-539389D02*
X346778Y-540722D01*
X346778Y-542056D01*
G54D11*
X343112Y-548500D02*
X345334Y-548500D01*
X346445Y-547833D01*
X346778Y-546500D01*
X346445Y-545166D01*
X345334Y-544500D01*
X343112Y-544500D01*
X342000Y-545166D01*
X341778Y-546500D01*
X342000Y-547833D01*
X343112Y-548500D01*
G54D11*
X341778Y-550944D02*
X350667Y-550944D01*
G54D11*
X341778Y-555965D02*
X350667Y-555965D01*
G54D11*
X345334Y-555965D02*
X346445Y-556632D01*
X346778Y-557965D01*
X346445Y-559298D01*
X345334Y-559965D01*
X343112Y-559965D01*
X342000Y-559298D01*
X341778Y-557965D01*
X342000Y-556632D01*
X343112Y-555965D01*
G54D11*
X343112Y-566409D02*
X345334Y-566409D01*
X346445Y-565742D01*
X346778Y-564409D01*
X346445Y-563076D01*
X345334Y-562409D01*
X343112Y-562409D01*
X342000Y-563076D01*
X341778Y-564409D01*
X342000Y-565742D01*
X343112Y-566409D01*
G54D11*
X346223Y-568853D02*
X346778Y-570186D01*
X346778Y-571786D01*
X345667Y-572853D01*
X341778Y-572853D01*
G54D11*
X343445Y-572853D02*
X344556Y-572186D01*
X344778Y-570853D01*
X344556Y-569520D01*
X343445Y-568853D01*
X342334Y-569120D01*
X341778Y-570186D01*
X341778Y-570853D01*
X341778Y-571120D01*
X342334Y-572186D01*
X343445Y-572853D01*
G54D11*
X341778Y-575297D02*
X346778Y-575297D01*
G54D11*
X345667Y-575297D02*
X346778Y-576630D01*
X346778Y-577964D01*
G54D11*
X341778Y-584408D02*
X350667Y-584408D01*
G54D11*
X345334Y-584408D02*
X346445Y-583741D01*
X346778Y-582408D01*
X346445Y-581074D01*
X345334Y-580408D01*
X343112Y-580408D01*
X342000Y-581074D01*
X341778Y-582408D01*
X342000Y-583741D01*
X343112Y-584408D01*
G54D11*
X405278Y-495957D02*
X414167Y-495957D01*
X414167Y-500624D01*
G54D11*
X409723Y-495957D02*
X409723Y-500624D01*
G54D11*
X406612Y-507068D02*
X408834Y-507068D01*
X409945Y-506402D01*
X410278Y-505068D01*
X409945Y-503735D01*
X408834Y-503068D01*
X406612Y-503068D01*
X405500Y-503735D01*
X405278Y-505068D01*
X405500Y-506402D01*
X406612Y-507068D01*
G54D11*
X405278Y-509512D02*
X410278Y-509512D01*
G54D11*
X409167Y-509512D02*
X410278Y-510846D01*
X410278Y-512179D01*
G54D11*
X410278Y-517200D02*
X403056Y-517200D01*
G54D11*
X406945Y-517200D02*
X405500Y-517867D01*
X405278Y-519200D01*
X405500Y-520534D01*
X406612Y-521200D01*
X408834Y-521200D01*
X409945Y-520534D01*
X410278Y-519200D01*
X409945Y-517867D01*
X408612Y-517200D01*
G54D11*
X406612Y-527644D02*
X408834Y-527644D01*
X409945Y-526978D01*
X410278Y-525644D01*
X409945Y-524311D01*
X408834Y-523644D01*
X406612Y-523644D01*
X405500Y-524311D01*
X405278Y-525644D01*
X405500Y-526978D01*
X406612Y-527644D01*
G54D11*
X410278Y-530088D02*
X405278Y-532088D01*
X410278Y-534088D01*
X405278Y-536088D01*
X410278Y-537422D01*
G54D11*
X405834Y-543865D02*
X405278Y-542799D01*
X405278Y-541465D01*
X405834Y-540132D01*
X406945Y-539865D01*
X408834Y-539865D01*
X409945Y-540532D01*
X410278Y-541865D01*
X409945Y-543199D01*
X409167Y-543865D01*
X408056Y-543865D01*
X408056Y-539865D01*
G54D11*
X405278Y-546309D02*
X410278Y-546309D01*
G54D11*
X409167Y-546309D02*
X410278Y-547643D01*
X410278Y-548976D01*
G54D11*
X405278Y-553997D02*
X414167Y-553997D01*
G54D11*
X408834Y-553997D02*
X409945Y-554664D01*
X410278Y-555997D01*
X409945Y-557331D01*
X408834Y-557997D01*
X406612Y-557997D01*
X405500Y-557331D01*
X405278Y-555997D01*
X405500Y-554664D01*
X406612Y-553997D01*
G54D11*
X406612Y-564441D02*
X408834Y-564441D01*
X409945Y-563775D01*
X410278Y-562441D01*
X409945Y-561108D01*
X408834Y-560441D01*
X406612Y-560441D01*
X405500Y-561108D01*
X405278Y-562441D01*
X405500Y-563775D01*
X406612Y-564441D01*
G54D11*
X409723Y-566885D02*
X410278Y-568219D01*
X410278Y-569819D01*
X409167Y-570885D01*
X405278Y-570885D01*
G54D11*
X406945Y-570885D02*
X408056Y-570219D01*
X408278Y-568885D01*
X408056Y-567552D01*
X406945Y-566885D01*
X405834Y-567152D01*
X405278Y-568219D01*
X405278Y-568885D01*
X405278Y-569152D01*
X405834Y-570219D01*
X406945Y-570885D01*
G54D11*
X405278Y-573329D02*
X410278Y-573329D01*
G54D11*
X409167Y-573329D02*
X410278Y-574663D01*
X410278Y-575996D01*
G54D11*
X405278Y-582440D02*
X414167Y-582440D01*
G54D11*
X408834Y-582440D02*
X409945Y-581774D01*
X410278Y-580440D01*
X409945Y-579107D01*
X408834Y-578440D01*
X406612Y-578440D01*
X405500Y-579107D01*
X405278Y-580440D01*
X405500Y-581774D01*
X406612Y-582440D01*
G54D11*
X144758Y-246254D02*
X139202Y-246254D01*
X138091Y-245588D01*
X137536Y-244254D01*
X137536Y-242921D01*
X138091Y-241588D01*
X139202Y-240921D01*
X144758Y-240921D01*
X145869Y-241588D01*
X146424Y-242921D01*
X146424Y-244254D01*
X145869Y-245588D01*
X144758Y-246254D01*
G54D11*
X166983Y-246254D02*
X161427Y-246254D01*
X160316Y-245588D01*
X159760Y-244254D01*
X159760Y-242921D01*
X160316Y-241588D01*
X161427Y-240921D01*
X166983Y-240921D01*
X168094Y-241588D01*
X168649Y-242921D01*
X168649Y-244254D01*
X168094Y-245588D01*
X166983Y-246254D01*
X11906Y-332581D02*
G54D15*
D03*
G54D11*
X106362Y-57944D02*
X106362Y-49055D01*
X109696Y-49055D01*
X111029Y-49610D01*
X111696Y-50722D01*
X111696Y-51833D01*
X111029Y-52944D01*
X109696Y-53499D01*
X106362Y-53499D01*
G54D11*
X114140Y-52388D02*
X117473Y-49055D01*
X117473Y-57944D01*
G54D11*
X226219Y-57944D02*
X226219Y-49055D01*
X229552Y-49055D01*
X230885Y-49610D01*
X231552Y-50722D01*
X231552Y-51833D01*
X230885Y-52944D01*
X229552Y-53499D01*
X226219Y-53499D01*
G54D11*
X239329Y-57944D02*
X233996Y-57944D01*
X233996Y-57388D01*
X234662Y-56277D01*
X238662Y-52944D01*
X239329Y-51833D01*
X239329Y-50722D01*
X238662Y-49610D01*
X237329Y-49055D01*
X235996Y-49055D01*
X234662Y-49610D01*
X233996Y-50722D01*
G54D11*
X315912Y-57944D02*
X315912Y-49055D01*
X319246Y-49055D01*
X320579Y-49610D01*
X321246Y-50722D01*
X321246Y-51833D01*
X320579Y-52944D01*
X319246Y-53499D01*
X315912Y-53499D01*
G54D11*
X323690Y-50722D02*
X324356Y-49610D01*
X325690Y-49055D01*
X327023Y-49055D01*
X328356Y-49610D01*
X329023Y-50722D01*
X329023Y-51833D01*
X328356Y-52944D01*
X327023Y-53499D01*
X328356Y-54055D01*
X329023Y-55166D01*
X329023Y-56277D01*
X328356Y-57388D01*
X327023Y-57944D01*
X325690Y-57944D01*
X324356Y-57388D01*
X323690Y-56277D01*
G54D11*
X48867Y-520813D02*
X57756Y-520813D01*
X57756Y-524146D01*
X57200Y-525480D01*
X56089Y-526146D01*
X54978Y-526146D01*
X53867Y-525480D01*
X53311Y-524146D01*
X53311Y-520813D01*
G54D11*
X48867Y-532590D02*
X57756Y-532590D01*
X52200Y-528590D01*
X51089Y-528590D01*
X51089Y-533923D01*
G54D11*
X319881Y-481806D02*
X319881Y-472917D01*
X323215Y-472917D01*
X324548Y-473473D01*
X325215Y-474584D01*
X325215Y-475695D01*
X324548Y-476806D01*
X323215Y-477362D01*
X319881Y-477362D01*
G54D11*
X332992Y-472917D02*
X327658Y-472917D01*
X327658Y-476806D01*
X328325Y-476806D01*
X329658Y-476251D01*
X330992Y-476251D01*
X332325Y-476806D01*
X332992Y-477917D01*
X332992Y-480140D01*
X332325Y-481251D01*
X330992Y-481806D01*
X329658Y-481806D01*
X328325Y-481251D01*
X327658Y-480140D01*
G54D11*
X382588Y-482600D02*
X382588Y-473711D01*
X385921Y-473711D01*
X387254Y-474267D01*
X387921Y-475378D01*
X387921Y-476489D01*
X387254Y-477600D01*
X385921Y-478156D01*
X382588Y-478156D01*
G54D11*
X395698Y-475378D02*
X395031Y-474267D01*
X393698Y-473711D01*
X392364Y-473711D01*
X391031Y-474267D01*
X390364Y-475378D01*
X390364Y-478156D01*
X390364Y-478711D01*
X392364Y-477600D01*
X393698Y-477600D01*
X395031Y-478156D01*
X395698Y-479267D01*
X395698Y-480933D01*
X395031Y-482044D01*
X393698Y-482600D01*
X392364Y-482600D01*
X391031Y-482044D01*
X390364Y-480933D01*
X390364Y-478156D01*
M02*
