; Drill file
; Format: 2.4 (00.0000)
M48
INCH
T01C0.0138
T02C0.0197
T03C0.0315
T04C0.0394
T05C0.126
%
G05
G90
T01
X002880Y-023270
X004720Y-023110
X006830Y-024000
X006830Y-021500
X008440Y-019730
X009440Y-023110
X003720Y-019730
X006330Y-016670
X006660Y-015360
X006320Y-014080
X005820Y-014080
X007320Y-014080
X007820Y-014080
X008820Y-014080
X006500Y-010470
X005630Y-010470
X005630Y-008690
X007320Y-008690
X009660Y-009160
X004060Y-006470
X004060Y-003160
X002340Y-012440
X002820Y-014080
T02
X011320Y-016200
X016190Y-016200
T03
X012750Y-022740
X012750Y-021740
X012750Y-020740
X012750Y-019740
T04
X001310Y-022740
X001310Y-021740
X001310Y-020740
X001310Y-019740
X001310Y-018740
X001310Y-017110
X001310Y-016110
X001310Y-015110
X001310Y-014110
X001310Y-013110
X010750Y-008970
X010750Y-004940
X010140Y-001280
X009140Y-001280
X008140Y-001280
X004890Y-001280
X003890Y-001280
X012140Y-001280
X013140Y-001280
X015750Y-004940
X015750Y-008970
X015250Y-019740
X015250Y-020740
X015250Y-021740
X015250Y-022740
T05
X001300Y-024570
X015740Y-024570
X015740Y-001290
X001300Y-001290
M30
