G04 This is an RS-274x file exported by *
G04 gerbv version 2.6A *
G04 More information is available about gerbv at *
G04 http://gerbv.geda-project.org/ *
G04 --End of header info--*
%MOIN*%
%FSLAX34Y34*%
%IPPOS*%
G04 --Define apertures--*
%ADD10R,0.0354X0.0787*%
%ADD11C,0.0945*%
%ADD12R,0.0630X0.0748*%
%ADD13R,0.1654X0.0748*%
%ADD14R,0.0512X0.0630*%
%ADD15R,0.1181X0.0866*%
%ADD16C,0.0472*%
%ADD17R,0.0472X0.0630*%
%ADD18R,0.0630X0.0472*%
%ADD19C,0.0551*%
%ADD20R,0.0866X0.1024*%
%ADD21R,0.0559X0.0480*%
%ADD22R,0.0480X0.0559*%
%ADD23R,0.0709X0.0551*%
%ADD24C,0.0945*%
%ADD25C,0.1024*%
G04 --Start main section--*
G54D10*
G01X0004328Y-017321D03*
G01X0004828Y-017321D03*
G01X0005328Y-017321D03*
G01X0005828Y-017321D03*
G01X0006328Y-017321D03*
G01X0006828Y-017321D03*
G01X0007328Y-017321D03*
G01X0007828Y-017321D03*
G01X0008328Y-017321D03*
G01X0008828Y-017321D03*
G01X0004328Y-013385D03*
G01X0004828Y-013385D03*
G01X0005328Y-013385D03*
G01X0005828Y-013385D03*
G01X0006328Y-013385D03*
G01X0006828Y-013385D03*
G01X0007328Y-013385D03*
G01X0007828Y-013385D03*
G01X0008328Y-013385D03*
G01X0008828Y-013385D03*
G01X0002328Y-017321D03*
G01X0002828Y-017321D03*
G01X0003328Y-017321D03*
G01X0003828Y-017321D03*
G01X0002328Y-013385D03*
G01X0002828Y-013385D03*
G01X0003328Y-013385D03*
G01X0003828Y-013385D03*
G54D11*
G01X0001314Y-014114D03*
G01X0001314Y-015114D03*
G01X0001314Y-016114D03*
G01X0001314Y-017114D03*
G01X0001314Y-013114D03*
G54D12*
G01X0011875Y-016324D03*
G01X0012780Y-016324D03*
G01X0013686Y-016324D03*
G54D13*
G01X0012780Y-013765D03*
G36*
G01X0003935Y-018416D02*
G01X0004446Y-018416D01*
G01X0004446Y-019046D01*
G01X0003935Y-019046D01*
G01X0003935Y-018416D01*
G37*
G54D14*
G01X0004979Y-018731D03*
G54D15*
G01X0010371Y-016316D03*
G01X0010371Y-017637D03*
G54D17*
G01X0010773Y-013899D03*
G01X0009922Y-013899D03*
G01X0010773Y-013024D03*
G01X0009922Y-013024D03*
G01X0010773Y-012149D03*
G01X0009922Y-012149D03*
G54D18*
G01X0008240Y-012414D03*
G01X0008240Y-011563D03*
G01X0007365Y-012414D03*
G01X0007365Y-011563D03*
G54D15*
G01X0015246Y-016316D03*
G01X0015246Y-017637D03*
G54D20*
G01X0003781Y-011656D03*
G01X0005344Y-011656D03*
G54D21*
G01X0010905Y-022353D03*
G01X0010003Y-022754D03*
G01X0010003Y-021951D03*
G01X0010904Y-020633D03*
G01X0010003Y-020232D03*
G01X0010003Y-021035D03*
G01X0009311Y-022352D03*
G01X0008409Y-021951D03*
G01X0008409Y-022754D03*
G54D18*
G01X0008448Y-021075D03*
G01X0008448Y-020224D03*
G01X0009292Y-021075D03*
G01X0009292Y-020224D03*
G01X0007605Y-021075D03*
G01X0007605Y-020224D03*
G54D11*
G01X0015252Y-019739D03*
G01X0015252Y-020739D03*
G01X0015252Y-021739D03*
G01X0015252Y-022739D03*
G36*
G01X0003145Y-009685D02*
G01X0003625Y-009685D01*
G01X0003625Y-010244D01*
G01X0003145Y-010244D01*
G01X0003145Y-009685D01*
G37*
G54D22*
G01X0002984Y-009063D03*
G01X0003787Y-009063D03*
G01X0001354Y-009063D03*
G36*
G01X0000712Y-009685D02*
G01X0001193Y-009685D01*
G01X0001193Y-010244D01*
G01X0000712Y-010244D01*
G01X0000712Y-009685D01*
G37*
G36*
G01X0001515Y-009685D02*
G01X0001996Y-009685D01*
G01X0001996Y-010244D01*
G01X0001515Y-010244D01*
G01X0001515Y-009685D01*
G37*
G54D23*
G01X0003562Y-006453D03*
G01X0003562Y-005453D03*
G01X0000999Y-005453D03*
G01X0000999Y-006453D03*
G54D21*
G01X0005469Y-006064D03*
G01X0004568Y-005662D03*
G01X0004568Y-006465D03*
G54D18*
G01X0004526Y-004554D03*
G01X0004526Y-003703D03*
G01X0000995Y-008211D03*
G01X0000995Y-007360D03*
G01X0002964Y-008211D03*
G01X0002964Y-007360D03*
G01X0003870Y-008211D03*
G01X0003870Y-007360D03*
G54D24*
G01X0012752Y-019739D03*
G01X0012752Y-020739D03*
G01X0012752Y-021739D03*
G01X0012752Y-022739D03*
G54D18*
G01X0007605Y-022793D03*
G01X0007605Y-021942D03*
G54D21*
G01X0006186Y-022353D03*
G01X0005284Y-022754D03*
G01X0005284Y-021951D03*
G01X0006186Y-020633D03*
G01X0005284Y-020232D03*
G01X0005284Y-021035D03*
G01X0004592Y-022352D03*
G01X0003690Y-021951D03*
G01X0003690Y-022754D03*
G54D18*
G01X0003730Y-021075D03*
G01X0003730Y-020224D03*
G01X0004573Y-021075D03*
G01X0004573Y-020224D03*
G01X0002886Y-021075D03*
G01X0002886Y-020224D03*
G01X0002886Y-022793D03*
G01X0002886Y-021942D03*
G54D11*
G01X0001314Y-019739D03*
G01X0001314Y-020739D03*
G01X0001314Y-021739D03*
G01X0001314Y-022739D03*
G54D17*
G01X0007241Y-018305D03*
G01X0006390Y-018305D03*
G01X0007241Y-019117D03*
G01X0006390Y-019117D03*
G54D15*
G01X0015246Y-013222D03*
G01X0015246Y-014543D03*
G54D17*
G01X0013460Y-012149D03*
G01X0012609Y-012149D03*
G01X0015210Y-012149D03*
G01X0014359Y-012149D03*
G54D25*
G01X0015750Y-008969D03*
G01X0010750Y-008969D03*
G01X0015750Y-004937D03*
G01X0010750Y-004937D03*
G54D18*
G01X0009105Y-010012D03*
G01X0009105Y-009161D03*
G01X0008230Y-010012D03*
G01X0008230Y-009161D03*
G01X0009011Y-005637D03*
G01X0009011Y-004786D03*
G01X0007636Y-005637D03*
G01X0007636Y-004786D03*
G01X0003589Y-004554D03*
G01X0003589Y-003703D03*
G01X0007367Y-010012D03*
G01X0007367Y-009161D03*
G54D11*
G01X0001314Y-018739D03*
G01X0012140Y-001278D03*
G01X0013140Y-001278D03*
G01X0010140Y-001278D03*
G01X0008140Y-001278D03*
G01X0004890Y-001278D03*
G01X0003890Y-001278D03*
G54D17*
G01X0004710Y-023992D03*
G01X0003859Y-023992D03*
G01X0006304Y-023992D03*
G01X0005453Y-023992D03*
G54D18*
G01X0009011Y-004012D03*
G01X0009011Y-003161D03*
G01X0007636Y-004012D03*
G01X0007636Y-003161D03*
G01X0006473Y-010006D03*
G01X0006473Y-009156D03*
G01X0005598Y-010006D03*
G01X0005598Y-009156D03*
G54D17*
G01X0002210Y-011649D03*
G01X0001359Y-011649D03*
M02*
